%TF.GenerationSoftware,KiCad,Pcbnew,6.0.9-8da3e8f707~116~ubuntu20.04.1*%
%TF.CreationDate,2023-03-15T01:20:17+01:00*%
%TF.ProjectId,six_to_six_control,7369785f-746f-45f7-9369-785f636f6e74,rev?*%
%TF.SameCoordinates,Original*%
%TF.FileFunction,Drillmap*%
%TF.FilePolarity,Positive*%
%FSLAX45Y45*%
G04 Gerber Fmt 4.5, Leading zero omitted, Abs format (unit mm)*
G04 Created by KiCad (PCBNEW 6.0.9-8da3e8f707~116~ubuntu20.04.1) date 2023-03-15 01:20:17*
%MOMM*%
%LPD*%
G01*
G04 APERTURE LIST*
%ADD10C,0.100000*%
%ADD11C,0.200000*%
%ADD12C,0.040000*%
%ADD13C,0.085000*%
%ADD14C,0.102000*%
%ADD15C,0.130000*%
%ADD16C,0.320000*%
G04 APERTURE END LIST*
D10*
X5080000Y-5842000D02*
X14986000Y-5842000D01*
X14986000Y-5842000D02*
X14986000Y-13335000D01*
X14986000Y-13335000D02*
X5080000Y-13335000D01*
X5080000Y-13335000D02*
X5080000Y-5842000D01*
D11*
D12*
X5410300Y-8090330D02*
X5450300Y-8130330D01*
X5450300Y-8090330D02*
X5410300Y-8130330D01*
X7092000Y-7600000D02*
X7132000Y-7640000D01*
X7132000Y-7600000D02*
X7092000Y-7640000D01*
X9949500Y-6774500D02*
X9989500Y-6814500D01*
X9989500Y-6774500D02*
X9949500Y-6814500D01*
D13*
X6519500Y-8128000D02*
G75*
G03*
X6519500Y-8128000I-42500J0D01*
G01*
X6519500Y-8382000D02*
G75*
G03*
X6519500Y-8382000I-42500J0D01*
G01*
X6519500Y-8636000D02*
G75*
G03*
X6519500Y-8636000I-42500J0D01*
G01*
X6519500Y-8890000D02*
G75*
G03*
X6519500Y-8890000I-42500J0D01*
G01*
X6519500Y-9144000D02*
G75*
G03*
X6519500Y-9144000I-42500J0D01*
G01*
X6519500Y-9398000D02*
G75*
G03*
X6519500Y-9398000I-42500J0D01*
G01*
X6519500Y-9652000D02*
G75*
G03*
X6519500Y-9652000I-42500J0D01*
G01*
X6519500Y-9906000D02*
G75*
G03*
X6519500Y-9906000I-42500J0D01*
G01*
X6519500Y-10160000D02*
G75*
G03*
X6519500Y-10160000I-42500J0D01*
G01*
X6519500Y-10414000D02*
G75*
G03*
X6519500Y-10414000I-42500J0D01*
G01*
X6519500Y-10668000D02*
G75*
G03*
X6519500Y-10668000I-42500J0D01*
G01*
X6519500Y-10922000D02*
G75*
G03*
X6519500Y-10922000I-42500J0D01*
G01*
X6519500Y-11176000D02*
G75*
G03*
X6519500Y-11176000I-42500J0D01*
G01*
X6519500Y-11430000D02*
G75*
G03*
X6519500Y-11430000I-42500J0D01*
G01*
X6519500Y-11684000D02*
G75*
G03*
X6519500Y-11684000I-42500J0D01*
G01*
X6519500Y-11938000D02*
G75*
G03*
X6519500Y-11938000I-42500J0D01*
G01*
X6519500Y-12192000D02*
G75*
G03*
X6519500Y-12192000I-42500J0D01*
G01*
X6519500Y-12446000D02*
G75*
G03*
X6519500Y-12446000I-42500J0D01*
G01*
X6773500Y-8128000D02*
G75*
G03*
X6773500Y-8128000I-42500J0D01*
G01*
X6773500Y-8382000D02*
G75*
G03*
X6773500Y-8382000I-42500J0D01*
G01*
X6773500Y-8636000D02*
G75*
G03*
X6773500Y-8636000I-42500J0D01*
G01*
X6773500Y-8890000D02*
G75*
G03*
X6773500Y-8890000I-42500J0D01*
G01*
X6773500Y-9144000D02*
G75*
G03*
X6773500Y-9144000I-42500J0D01*
G01*
X6773500Y-9398000D02*
G75*
G03*
X6773500Y-9398000I-42500J0D01*
G01*
X6773500Y-9652000D02*
G75*
G03*
X6773500Y-9652000I-42500J0D01*
G01*
X6773500Y-9906000D02*
G75*
G03*
X6773500Y-9906000I-42500J0D01*
G01*
X6773500Y-10160000D02*
G75*
G03*
X6773500Y-10160000I-42500J0D01*
G01*
X6773500Y-10414000D02*
G75*
G03*
X6773500Y-10414000I-42500J0D01*
G01*
X6773500Y-10668000D02*
G75*
G03*
X6773500Y-10668000I-42500J0D01*
G01*
X6773500Y-10922000D02*
G75*
G03*
X6773500Y-10922000I-42500J0D01*
G01*
X6773500Y-11176000D02*
G75*
G03*
X6773500Y-11176000I-42500J0D01*
G01*
X6773500Y-11430000D02*
G75*
G03*
X6773500Y-11430000I-42500J0D01*
G01*
X6773500Y-11684000D02*
G75*
G03*
X6773500Y-11684000I-42500J0D01*
G01*
X6773500Y-11938000D02*
G75*
G03*
X6773500Y-11938000I-42500J0D01*
G01*
X6773500Y-12192000D02*
G75*
G03*
X6773500Y-12192000I-42500J0D01*
G01*
X6773500Y-12446000D02*
G75*
G03*
X6773500Y-12446000I-42500J0D01*
G01*
X7052900Y-12954000D02*
G75*
G03*
X7052900Y-12954000I-42500J0D01*
G01*
X7306900Y-12954000D02*
G75*
G03*
X7306900Y-12954000I-42500J0D01*
G01*
X7535500Y-8128000D02*
G75*
G03*
X7535500Y-8128000I-42500J0D01*
G01*
X7535500Y-12954000D02*
G75*
G03*
X7535500Y-12954000I-42500J0D01*
G01*
X7789500Y-8128000D02*
G75*
G03*
X7789500Y-8128000I-42500J0D01*
G01*
X7789500Y-12954000D02*
G75*
G03*
X7789500Y-12954000I-42500J0D01*
G01*
X8043500Y-8128000D02*
G75*
G03*
X8043500Y-8128000I-42500J0D01*
G01*
X8043500Y-12954000D02*
G75*
G03*
X8043500Y-12954000I-42500J0D01*
G01*
X8297500Y-8128000D02*
G75*
G03*
X8297500Y-8128000I-42500J0D01*
G01*
X8297500Y-12954000D02*
G75*
G03*
X8297500Y-12954000I-42500J0D01*
G01*
X8551500Y-8128000D02*
G75*
G03*
X8551500Y-8128000I-42500J0D01*
G01*
X8551500Y-12954000D02*
G75*
G03*
X8551500Y-12954000I-42500J0D01*
G01*
X8805500Y-8128000D02*
G75*
G03*
X8805500Y-8128000I-42500J0D01*
G01*
X8805500Y-12954000D02*
G75*
G03*
X8805500Y-12954000I-42500J0D01*
G01*
X9059500Y-8128000D02*
G75*
G03*
X9059500Y-8128000I-42500J0D01*
G01*
X9313500Y-8128000D02*
G75*
G03*
X9313500Y-8128000I-42500J0D01*
G01*
X9313500Y-12954000D02*
G75*
G03*
X9313500Y-12954000I-42500J0D01*
G01*
X9567500Y-12954000D02*
G75*
G03*
X9567500Y-12954000I-42500J0D01*
G01*
X9821500Y-8128000D02*
G75*
G03*
X9821500Y-8128000I-42500J0D01*
G01*
X9821500Y-12954000D02*
G75*
G03*
X9821500Y-12954000I-42500J0D01*
G01*
X10075500Y-8128000D02*
G75*
G03*
X10075500Y-8128000I-42500J0D01*
G01*
X10075500Y-12954000D02*
G75*
G03*
X10075500Y-12954000I-42500J0D01*
G01*
X10329500Y-8128000D02*
G75*
G03*
X10329500Y-8128000I-42500J0D01*
G01*
X10329500Y-12954000D02*
G75*
G03*
X10329500Y-12954000I-42500J0D01*
G01*
X10583500Y-8128000D02*
G75*
G03*
X10583500Y-8128000I-42500J0D01*
G01*
X10583500Y-12954000D02*
G75*
G03*
X10583500Y-12954000I-42500J0D01*
G01*
X10837500Y-8128000D02*
G75*
G03*
X10837500Y-8128000I-42500J0D01*
G01*
X10837500Y-12954000D02*
G75*
G03*
X10837500Y-12954000I-42500J0D01*
G01*
X11091500Y-8128000D02*
G75*
G03*
X11091500Y-8128000I-42500J0D01*
G01*
X11091500Y-12954000D02*
G75*
G03*
X11091500Y-12954000I-42500J0D01*
G01*
X11345500Y-8128000D02*
G75*
G03*
X11345500Y-8128000I-42500J0D01*
G01*
X11599500Y-8128000D02*
G75*
G03*
X11599500Y-8128000I-42500J0D01*
G01*
X11599500Y-12954000D02*
G75*
G03*
X11599500Y-12954000I-42500J0D01*
G01*
X11853500Y-12954000D02*
G75*
G03*
X11853500Y-12954000I-42500J0D01*
G01*
X12005900Y-8128000D02*
G75*
G03*
X12005900Y-8128000I-42500J0D01*
G01*
X12107500Y-12954000D02*
G75*
G03*
X12107500Y-12954000I-42500J0D01*
G01*
X12259900Y-8128000D02*
G75*
G03*
X12259900Y-8128000I-42500J0D01*
G01*
X12361500Y-12954000D02*
G75*
G03*
X12361500Y-12954000I-42500J0D01*
G01*
X12513900Y-8128000D02*
G75*
G03*
X12513900Y-8128000I-42500J0D01*
G01*
X12615500Y-12954000D02*
G75*
G03*
X12615500Y-12954000I-42500J0D01*
G01*
X12767900Y-8128000D02*
G75*
G03*
X12767900Y-8128000I-42500J0D01*
G01*
X12869500Y-12954000D02*
G75*
G03*
X12869500Y-12954000I-42500J0D01*
G01*
X13021900Y-8128000D02*
G75*
G03*
X13021900Y-8128000I-42500J0D01*
G01*
X13123500Y-12954000D02*
G75*
G03*
X13123500Y-12954000I-42500J0D01*
G01*
X13275900Y-8128000D02*
G75*
G03*
X13275900Y-8128000I-42500J0D01*
G01*
X13377500Y-12954000D02*
G75*
G03*
X13377500Y-12954000I-42500J0D01*
G01*
X13529900Y-8128000D02*
G75*
G03*
X13529900Y-8128000I-42500J0D01*
G01*
X13783900Y-8128000D02*
G75*
G03*
X13783900Y-8128000I-42500J0D01*
G01*
X14037900Y-8128000D02*
G75*
G03*
X14037900Y-8128000I-42500J0D01*
G01*
X14291900Y-8128000D02*
G75*
G03*
X14291900Y-8128000I-42500J0D01*
G01*
D10*
X5270500Y-7062000D02*
X5270500Y-7162000D01*
X5220500Y-7112000D02*
X5320500Y-7112000D01*
X5270500Y-7316000D02*
X5270500Y-7416000D01*
X5220500Y-7366000D02*
X5320500Y-7366000D01*
X5270500Y-7570000D02*
X5270500Y-7670000D01*
X5220500Y-7620000D02*
X5320500Y-7620000D01*
X5270500Y-7824000D02*
X5270500Y-7924000D01*
X5220500Y-7874000D02*
X5320500Y-7874000D01*
X5270500Y-8459000D02*
X5270500Y-8559000D01*
X5220500Y-8509000D02*
X5320500Y-8509000D01*
X5270500Y-8713000D02*
X5270500Y-8813000D01*
X5220500Y-8763000D02*
X5320500Y-8763000D01*
X5270500Y-8967000D02*
X5270500Y-9067000D01*
X5220500Y-9017000D02*
X5320500Y-9017000D01*
X5270500Y-9221000D02*
X5270500Y-9321000D01*
X5220500Y-9271000D02*
X5320500Y-9271000D01*
X5270500Y-9856000D02*
X5270500Y-9956000D01*
X5220500Y-9906000D02*
X5320500Y-9906000D01*
X5270500Y-10110000D02*
X5270500Y-10210000D01*
X5220500Y-10160000D02*
X5320500Y-10160000D01*
X5270500Y-10364000D02*
X5270500Y-10464000D01*
X5220500Y-10414000D02*
X5320500Y-10414000D01*
X5270500Y-10618000D02*
X5270500Y-10718000D01*
X5220500Y-10668000D02*
X5320500Y-10668000D01*
X5270500Y-11253000D02*
X5270500Y-11353000D01*
X5220500Y-11303000D02*
X5320500Y-11303000D01*
X5270500Y-11507000D02*
X5270500Y-11607000D01*
X5220500Y-11557000D02*
X5320500Y-11557000D01*
X5270500Y-11761000D02*
X5270500Y-11861000D01*
X5220500Y-11811000D02*
X5320500Y-11811000D01*
X5270500Y-12015000D02*
X5270500Y-12115000D01*
X5220500Y-12065000D02*
X5320500Y-12065000D01*
X5524500Y-7062000D02*
X5524500Y-7162000D01*
X5474500Y-7112000D02*
X5574500Y-7112000D01*
X5524500Y-7316000D02*
X5524500Y-7416000D01*
X5474500Y-7366000D02*
X5574500Y-7366000D01*
X5524500Y-7570000D02*
X5524500Y-7670000D01*
X5474500Y-7620000D02*
X5574500Y-7620000D01*
X5524500Y-7824000D02*
X5524500Y-7924000D01*
X5474500Y-7874000D02*
X5574500Y-7874000D01*
X5524500Y-8459000D02*
X5524500Y-8559000D01*
X5474500Y-8509000D02*
X5574500Y-8509000D01*
X5524500Y-8713000D02*
X5524500Y-8813000D01*
X5474500Y-8763000D02*
X5574500Y-8763000D01*
X5524500Y-8967000D02*
X5524500Y-9067000D01*
X5474500Y-9017000D02*
X5574500Y-9017000D01*
X5524500Y-9221000D02*
X5524500Y-9321000D01*
X5474500Y-9271000D02*
X5574500Y-9271000D01*
X5524500Y-9856000D02*
X5524500Y-9956000D01*
X5474500Y-9906000D02*
X5574500Y-9906000D01*
X5524500Y-10110000D02*
X5524500Y-10210000D01*
X5474500Y-10160000D02*
X5574500Y-10160000D01*
X5524500Y-10364000D02*
X5524500Y-10464000D01*
X5474500Y-10414000D02*
X5574500Y-10414000D01*
X5524500Y-10618000D02*
X5524500Y-10718000D01*
X5474500Y-10668000D02*
X5574500Y-10668000D01*
X5524500Y-11253000D02*
X5524500Y-11353000D01*
X5474500Y-11303000D02*
X5574500Y-11303000D01*
X5524500Y-11507000D02*
X5524500Y-11607000D01*
X5474500Y-11557000D02*
X5574500Y-11557000D01*
X5524500Y-11761000D02*
X5524500Y-11861000D01*
X5474500Y-11811000D02*
X5574500Y-11811000D01*
X5524500Y-12015000D02*
X5524500Y-12115000D01*
X5474500Y-12065000D02*
X5574500Y-12065000D01*
X6350000Y-6300000D02*
X6350000Y-6400000D01*
X6300000Y-6350000D02*
X6400000Y-6350000D01*
X6350000Y-6554000D02*
X6350000Y-6654000D01*
X6300000Y-6604000D02*
X6400000Y-6604000D01*
X6350000Y-6808000D02*
X6350000Y-6908000D01*
X6300000Y-6858000D02*
X6400000Y-6858000D01*
X6350000Y-7062000D02*
X6350000Y-7162000D01*
X6300000Y-7112000D02*
X6400000Y-7112000D01*
X6604000Y-6300000D02*
X6604000Y-6400000D01*
X6554000Y-6350000D02*
X6654000Y-6350000D01*
X6604000Y-6554000D02*
X6604000Y-6654000D01*
X6554000Y-6604000D02*
X6654000Y-6604000D01*
X6604000Y-6808000D02*
X6604000Y-6908000D01*
X6554000Y-6858000D02*
X6654000Y-6858000D01*
X6604000Y-7062000D02*
X6604000Y-7162000D01*
X6554000Y-7112000D02*
X6654000Y-7112000D01*
X7493500Y-6299000D02*
X7493500Y-6399000D01*
X7443500Y-6349000D02*
X7543500Y-6349000D01*
X7493500Y-6553000D02*
X7493500Y-6653000D01*
X7443500Y-6603000D02*
X7543500Y-6603000D01*
X7493500Y-6807000D02*
X7493500Y-6907000D01*
X7443500Y-6857000D02*
X7543500Y-6857000D01*
X7493500Y-7061000D02*
X7493500Y-7161000D01*
X7443500Y-7111000D02*
X7543500Y-7111000D01*
X7747500Y-6299000D02*
X7747500Y-6399000D01*
X7697500Y-6349000D02*
X7797500Y-6349000D01*
X7747500Y-6553000D02*
X7747500Y-6653000D01*
X7697500Y-6603000D02*
X7797500Y-6603000D01*
X7747500Y-6807000D02*
X7747500Y-6907000D01*
X7697500Y-6857000D02*
X7797500Y-6857000D01*
X7747500Y-7061000D02*
X7747500Y-7161000D01*
X7697500Y-7111000D02*
X7797500Y-7111000D01*
D14*
X8614213Y-6513063D02*
X8614213Y-6440937D01*
X8542087Y-6440937D01*
X8542087Y-6513063D01*
X8614213Y-6513063D01*
X8614213Y-6767063D02*
X8614213Y-6694937D01*
X8542087Y-6694937D01*
X8542087Y-6767063D01*
X8614213Y-6767063D01*
X8614213Y-7021063D02*
X8614213Y-6948937D01*
X8542087Y-6948937D01*
X8542087Y-7021063D01*
X8614213Y-7021063D01*
X8614213Y-7275063D02*
X8614213Y-7202937D01*
X8542087Y-7202937D01*
X8542087Y-7275063D01*
X8614213Y-7275063D01*
X12736213Y-6513063D02*
X12736213Y-6440937D01*
X12664087Y-6440937D01*
X12664087Y-6513063D01*
X12736213Y-6513063D01*
X12736213Y-6767063D02*
X12736213Y-6694937D01*
X12664087Y-6694937D01*
X12664087Y-6767063D01*
X12736213Y-6767063D01*
X12736213Y-7021063D02*
X12736213Y-6948937D01*
X12664087Y-6948937D01*
X12664087Y-7021063D01*
X12736213Y-7021063D01*
X12736213Y-7275063D02*
X12736213Y-7202937D01*
X12664087Y-7202937D01*
X12664087Y-7275063D01*
X12736213Y-7275063D01*
D15*
X13683000Y-6669500D02*
X13748000Y-6604500D01*
X13683000Y-6539500D01*
X13618000Y-6604500D01*
X13683000Y-6669500D01*
X13683000Y-7177500D02*
X13748000Y-7112500D01*
X13683000Y-7047500D01*
X13618000Y-7112500D01*
X13683000Y-7177500D01*
D16*
X5301000Y-6063000D02*
X5621000Y-6383000D01*
X5621000Y-6063000D02*
X5301000Y-6383000D01*
X5621000Y-6223000D02*
G75*
G03*
X5621000Y-6223000I-160000J0D01*
G01*
X5301000Y-12794000D02*
X5621000Y-13114000D01*
X5621000Y-12794000D02*
X5301000Y-13114000D01*
X5621000Y-12954000D02*
G75*
G03*
X5621000Y-12954000I-160000J0D01*
G01*
X13937000Y-12794000D02*
X14257000Y-13114000D01*
X14257000Y-12794000D02*
X13937000Y-13114000D01*
X14257000Y-12954000D02*
G75*
G03*
X14257000Y-12954000I-160000J0D01*
G01*
X14445000Y-6190000D02*
X14765000Y-6510000D01*
X14765000Y-6190000D02*
X14445000Y-6510000D01*
X14765000Y-6350000D02*
G75*
G03*
X14765000Y-6350000I-160000J0D01*
G01*
D11*
X5332619Y-13650476D02*
X5332619Y-13450476D01*
X5380238Y-13450476D01*
X5408810Y-13460000D01*
X5427857Y-13479048D01*
X5437381Y-13498095D01*
X5446905Y-13536190D01*
X5446905Y-13564762D01*
X5437381Y-13602857D01*
X5427857Y-13621905D01*
X5408810Y-13640952D01*
X5380238Y-13650476D01*
X5332619Y-13650476D01*
X5532619Y-13650476D02*
X5532619Y-13517143D01*
X5532619Y-13555238D02*
X5542143Y-13536190D01*
X5551667Y-13526667D01*
X5570714Y-13517143D01*
X5589762Y-13517143D01*
X5656428Y-13650476D02*
X5656428Y-13517143D01*
X5656428Y-13450476D02*
X5646905Y-13460000D01*
X5656428Y-13469524D01*
X5665952Y-13460000D01*
X5656428Y-13450476D01*
X5656428Y-13469524D01*
X5780238Y-13650476D02*
X5761190Y-13640952D01*
X5751667Y-13621905D01*
X5751667Y-13450476D01*
X5885000Y-13650476D02*
X5865952Y-13640952D01*
X5856428Y-13621905D01*
X5856428Y-13450476D01*
X6113571Y-13650476D02*
X6113571Y-13450476D01*
X6180238Y-13593333D01*
X6246905Y-13450476D01*
X6246905Y-13650476D01*
X6427857Y-13650476D02*
X6427857Y-13545714D01*
X6418333Y-13526667D01*
X6399286Y-13517143D01*
X6361190Y-13517143D01*
X6342143Y-13526667D01*
X6427857Y-13640952D02*
X6408809Y-13650476D01*
X6361190Y-13650476D01*
X6342143Y-13640952D01*
X6332619Y-13621905D01*
X6332619Y-13602857D01*
X6342143Y-13583809D01*
X6361190Y-13574286D01*
X6408809Y-13574286D01*
X6427857Y-13564762D01*
X6523095Y-13517143D02*
X6523095Y-13717143D01*
X6523095Y-13526667D02*
X6542143Y-13517143D01*
X6580238Y-13517143D01*
X6599286Y-13526667D01*
X6608809Y-13536190D01*
X6618333Y-13555238D01*
X6618333Y-13612381D01*
X6608809Y-13631428D01*
X6599286Y-13640952D01*
X6580238Y-13650476D01*
X6542143Y-13650476D01*
X6523095Y-13640952D01*
X6704048Y-13631428D02*
X6713571Y-13640952D01*
X6704048Y-13650476D01*
X6694524Y-13640952D01*
X6704048Y-13631428D01*
X6704048Y-13650476D01*
X6704048Y-13526667D02*
X6713571Y-13536190D01*
X6704048Y-13545714D01*
X6694524Y-13536190D01*
X6704048Y-13526667D01*
X6704048Y-13545714D01*
D12*
X5035000Y-13960000D02*
X5075000Y-14000000D01*
X5075000Y-13960000D02*
X5035000Y-14000000D01*
D11*
X5370714Y-13870476D02*
X5389762Y-13870476D01*
X5408810Y-13880000D01*
X5418333Y-13889524D01*
X5427857Y-13908571D01*
X5437381Y-13946667D01*
X5437381Y-13994286D01*
X5427857Y-14032381D01*
X5418333Y-14051428D01*
X5408810Y-14060952D01*
X5389762Y-14070476D01*
X5370714Y-14070476D01*
X5351667Y-14060952D01*
X5342143Y-14051428D01*
X5332619Y-14032381D01*
X5323095Y-13994286D01*
X5323095Y-13946667D01*
X5332619Y-13908571D01*
X5342143Y-13889524D01*
X5351667Y-13880000D01*
X5370714Y-13870476D01*
X5523095Y-14051428D02*
X5532619Y-14060952D01*
X5523095Y-14070476D01*
X5513571Y-14060952D01*
X5523095Y-14051428D01*
X5523095Y-14070476D01*
X5704048Y-13937143D02*
X5704048Y-14070476D01*
X5656428Y-13860952D02*
X5608809Y-14003809D01*
X5732619Y-14003809D01*
X5846905Y-13870476D02*
X5865952Y-13870476D01*
X5885000Y-13880000D01*
X5894524Y-13889524D01*
X5904048Y-13908571D01*
X5913571Y-13946667D01*
X5913571Y-13994286D01*
X5904048Y-14032381D01*
X5894524Y-14051428D01*
X5885000Y-14060952D01*
X5865952Y-14070476D01*
X5846905Y-14070476D01*
X5827857Y-14060952D01*
X5818333Y-14051428D01*
X5808809Y-14032381D01*
X5799286Y-13994286D01*
X5799286Y-13946667D01*
X5808809Y-13908571D01*
X5818333Y-13889524D01*
X5827857Y-13880000D01*
X5846905Y-13870476D01*
X6037381Y-13870476D02*
X6056428Y-13870476D01*
X6075476Y-13880000D01*
X6085000Y-13889524D01*
X6094524Y-13908571D01*
X6104048Y-13946667D01*
X6104048Y-13994286D01*
X6094524Y-14032381D01*
X6085000Y-14051428D01*
X6075476Y-14060952D01*
X6056428Y-14070476D01*
X6037381Y-14070476D01*
X6018333Y-14060952D01*
X6008809Y-14051428D01*
X5999286Y-14032381D01*
X5989762Y-13994286D01*
X5989762Y-13946667D01*
X5999286Y-13908571D01*
X6008809Y-13889524D01*
X6018333Y-13880000D01*
X6037381Y-13870476D01*
X6189762Y-14070476D02*
X6189762Y-13937143D01*
X6189762Y-13956190D02*
X6199286Y-13946667D01*
X6218333Y-13937143D01*
X6246905Y-13937143D01*
X6265952Y-13946667D01*
X6275476Y-13965714D01*
X6275476Y-14070476D01*
X6275476Y-13965714D02*
X6285000Y-13946667D01*
X6304048Y-13937143D01*
X6332619Y-13937143D01*
X6351667Y-13946667D01*
X6361190Y-13965714D01*
X6361190Y-14070476D01*
X6456428Y-14070476D02*
X6456428Y-13937143D01*
X6456428Y-13956190D02*
X6465952Y-13946667D01*
X6485000Y-13937143D01*
X6513571Y-13937143D01*
X6532619Y-13946667D01*
X6542143Y-13965714D01*
X6542143Y-14070476D01*
X6542143Y-13965714D02*
X6551667Y-13946667D01*
X6570714Y-13937143D01*
X6599286Y-13937143D01*
X6618333Y-13946667D01*
X6627857Y-13965714D01*
X6627857Y-14070476D01*
X7018333Y-13860952D02*
X6846905Y-14118095D01*
X7275476Y-13870476D02*
X7294524Y-13870476D01*
X7313571Y-13880000D01*
X7323095Y-13889524D01*
X7332619Y-13908571D01*
X7342143Y-13946667D01*
X7342143Y-13994286D01*
X7332619Y-14032381D01*
X7323095Y-14051428D01*
X7313571Y-14060952D01*
X7294524Y-14070476D01*
X7275476Y-14070476D01*
X7256428Y-14060952D01*
X7246905Y-14051428D01*
X7237381Y-14032381D01*
X7227857Y-13994286D01*
X7227857Y-13946667D01*
X7237381Y-13908571D01*
X7246905Y-13889524D01*
X7256428Y-13880000D01*
X7275476Y-13870476D01*
X7427857Y-14051428D02*
X7437381Y-14060952D01*
X7427857Y-14070476D01*
X7418333Y-14060952D01*
X7427857Y-14051428D01*
X7427857Y-14070476D01*
X7561190Y-13870476D02*
X7580238Y-13870476D01*
X7599286Y-13880000D01*
X7608809Y-13889524D01*
X7618333Y-13908571D01*
X7627857Y-13946667D01*
X7627857Y-13994286D01*
X7618333Y-14032381D01*
X7608809Y-14051428D01*
X7599286Y-14060952D01*
X7580238Y-14070476D01*
X7561190Y-14070476D01*
X7542143Y-14060952D01*
X7532619Y-14051428D01*
X7523095Y-14032381D01*
X7513571Y-13994286D01*
X7513571Y-13946667D01*
X7523095Y-13908571D01*
X7532619Y-13889524D01*
X7542143Y-13880000D01*
X7561190Y-13870476D01*
X7818333Y-14070476D02*
X7704048Y-14070476D01*
X7761190Y-14070476D02*
X7761190Y-13870476D01*
X7742143Y-13899048D01*
X7723095Y-13918095D01*
X7704048Y-13927619D01*
X7999286Y-13870476D02*
X7904048Y-13870476D01*
X7894524Y-13965714D01*
X7904048Y-13956190D01*
X7923095Y-13946667D01*
X7970714Y-13946667D01*
X7989762Y-13956190D01*
X7999286Y-13965714D01*
X8008809Y-13984762D01*
X8008809Y-14032381D01*
X7999286Y-14051428D01*
X7989762Y-14060952D01*
X7970714Y-14070476D01*
X7923095Y-14070476D01*
X7904048Y-14060952D01*
X7894524Y-14051428D01*
X8075476Y-13870476D02*
X8208809Y-13870476D01*
X8123095Y-14070476D01*
X8275476Y-13870476D02*
X8275476Y-13908571D01*
X8351667Y-13870476D02*
X8351667Y-13908571D01*
X8646905Y-14146667D02*
X8637381Y-14137143D01*
X8618333Y-14108571D01*
X8608810Y-14089524D01*
X8599286Y-14060952D01*
X8589762Y-14013333D01*
X8589762Y-13975238D01*
X8599286Y-13927619D01*
X8608810Y-13899048D01*
X8618333Y-13880000D01*
X8637381Y-13851428D01*
X8646905Y-13841905D01*
X8704048Y-13870476D02*
X8827857Y-13870476D01*
X8761190Y-13946667D01*
X8789762Y-13946667D01*
X8808810Y-13956190D01*
X8818333Y-13965714D01*
X8827857Y-13984762D01*
X8827857Y-14032381D01*
X8818333Y-14051428D01*
X8808810Y-14060952D01*
X8789762Y-14070476D01*
X8732619Y-14070476D01*
X8713571Y-14060952D01*
X8704048Y-14051428D01*
X9065952Y-14070476D02*
X9065952Y-13870476D01*
X9151667Y-14070476D02*
X9151667Y-13965714D01*
X9142143Y-13946667D01*
X9123095Y-13937143D01*
X9094524Y-13937143D01*
X9075476Y-13946667D01*
X9065952Y-13956190D01*
X9275476Y-14070476D02*
X9256429Y-14060952D01*
X9246905Y-14051428D01*
X9237381Y-14032381D01*
X9237381Y-13975238D01*
X9246905Y-13956190D01*
X9256429Y-13946667D01*
X9275476Y-13937143D01*
X9304048Y-13937143D01*
X9323095Y-13946667D01*
X9332619Y-13956190D01*
X9342143Y-13975238D01*
X9342143Y-14032381D01*
X9332619Y-14051428D01*
X9323095Y-14060952D01*
X9304048Y-14070476D01*
X9275476Y-14070476D01*
X9456429Y-14070476D02*
X9437381Y-14060952D01*
X9427857Y-14041905D01*
X9427857Y-13870476D01*
X9608810Y-14060952D02*
X9589762Y-14070476D01*
X9551667Y-14070476D01*
X9532619Y-14060952D01*
X9523095Y-14041905D01*
X9523095Y-13965714D01*
X9532619Y-13946667D01*
X9551667Y-13937143D01*
X9589762Y-13937143D01*
X9608810Y-13946667D01*
X9618333Y-13965714D01*
X9618333Y-13984762D01*
X9523095Y-14003809D01*
X9694524Y-14060952D02*
X9713571Y-14070476D01*
X9751667Y-14070476D01*
X9770714Y-14060952D01*
X9780238Y-14041905D01*
X9780238Y-14032381D01*
X9770714Y-14013333D01*
X9751667Y-14003809D01*
X9723095Y-14003809D01*
X9704048Y-13994286D01*
X9694524Y-13975238D01*
X9694524Y-13965714D01*
X9704048Y-13946667D01*
X9723095Y-13937143D01*
X9751667Y-13937143D01*
X9770714Y-13946667D01*
X9846905Y-14146667D02*
X9856429Y-14137143D01*
X9875476Y-14108571D01*
X9885000Y-14089524D01*
X9894524Y-14060952D01*
X9904048Y-14013333D01*
X9904048Y-13975238D01*
X9894524Y-13927619D01*
X9885000Y-13899048D01*
X9875476Y-13880000D01*
X9856429Y-13851428D01*
X9846905Y-13841905D01*
D13*
X5075000Y-14244000D02*
G75*
G03*
X5075000Y-14244000I-42500J0D01*
G01*
D11*
X5370714Y-14134476D02*
X5389762Y-14134476D01*
X5408810Y-14144000D01*
X5418333Y-14153524D01*
X5427857Y-14172571D01*
X5437381Y-14210667D01*
X5437381Y-14258286D01*
X5427857Y-14296381D01*
X5418333Y-14315428D01*
X5408810Y-14324952D01*
X5389762Y-14334476D01*
X5370714Y-14334476D01*
X5351667Y-14324952D01*
X5342143Y-14315428D01*
X5332619Y-14296381D01*
X5323095Y-14258286D01*
X5323095Y-14210667D01*
X5332619Y-14172571D01*
X5342143Y-14153524D01*
X5351667Y-14144000D01*
X5370714Y-14134476D01*
X5523095Y-14315428D02*
X5532619Y-14324952D01*
X5523095Y-14334476D01*
X5513571Y-14324952D01*
X5523095Y-14315428D01*
X5523095Y-14334476D01*
X5646905Y-14220190D02*
X5627857Y-14210667D01*
X5618333Y-14201143D01*
X5608809Y-14182095D01*
X5608809Y-14172571D01*
X5618333Y-14153524D01*
X5627857Y-14144000D01*
X5646905Y-14134476D01*
X5685000Y-14134476D01*
X5704048Y-14144000D01*
X5713571Y-14153524D01*
X5723095Y-14172571D01*
X5723095Y-14182095D01*
X5713571Y-14201143D01*
X5704048Y-14210667D01*
X5685000Y-14220190D01*
X5646905Y-14220190D01*
X5627857Y-14229714D01*
X5618333Y-14239238D01*
X5608809Y-14258286D01*
X5608809Y-14296381D01*
X5618333Y-14315428D01*
X5627857Y-14324952D01*
X5646905Y-14334476D01*
X5685000Y-14334476D01*
X5704048Y-14324952D01*
X5713571Y-14315428D01*
X5723095Y-14296381D01*
X5723095Y-14258286D01*
X5713571Y-14239238D01*
X5704048Y-14229714D01*
X5685000Y-14220190D01*
X5904048Y-14134476D02*
X5808809Y-14134476D01*
X5799286Y-14229714D01*
X5808809Y-14220190D01*
X5827857Y-14210667D01*
X5875476Y-14210667D01*
X5894524Y-14220190D01*
X5904048Y-14229714D01*
X5913571Y-14248762D01*
X5913571Y-14296381D01*
X5904048Y-14315428D01*
X5894524Y-14324952D01*
X5875476Y-14334476D01*
X5827857Y-14334476D01*
X5808809Y-14324952D01*
X5799286Y-14315428D01*
X6037381Y-14134476D02*
X6056428Y-14134476D01*
X6075476Y-14144000D01*
X6085000Y-14153524D01*
X6094524Y-14172571D01*
X6104048Y-14210667D01*
X6104048Y-14258286D01*
X6094524Y-14296381D01*
X6085000Y-14315428D01*
X6075476Y-14324952D01*
X6056428Y-14334476D01*
X6037381Y-14334476D01*
X6018333Y-14324952D01*
X6008809Y-14315428D01*
X5999286Y-14296381D01*
X5989762Y-14258286D01*
X5989762Y-14210667D01*
X5999286Y-14172571D01*
X6008809Y-14153524D01*
X6018333Y-14144000D01*
X6037381Y-14134476D01*
X6189762Y-14334476D02*
X6189762Y-14201143D01*
X6189762Y-14220190D02*
X6199286Y-14210667D01*
X6218333Y-14201143D01*
X6246905Y-14201143D01*
X6265952Y-14210667D01*
X6275476Y-14229714D01*
X6275476Y-14334476D01*
X6275476Y-14229714D02*
X6285000Y-14210667D01*
X6304048Y-14201143D01*
X6332619Y-14201143D01*
X6351667Y-14210667D01*
X6361190Y-14229714D01*
X6361190Y-14334476D01*
X6456428Y-14334476D02*
X6456428Y-14201143D01*
X6456428Y-14220190D02*
X6465952Y-14210667D01*
X6485000Y-14201143D01*
X6513571Y-14201143D01*
X6532619Y-14210667D01*
X6542143Y-14229714D01*
X6542143Y-14334476D01*
X6542143Y-14229714D02*
X6551667Y-14210667D01*
X6570714Y-14201143D01*
X6599286Y-14201143D01*
X6618333Y-14210667D01*
X6627857Y-14229714D01*
X6627857Y-14334476D01*
X7018333Y-14124952D02*
X6846905Y-14382095D01*
X7275476Y-14134476D02*
X7294524Y-14134476D01*
X7313571Y-14144000D01*
X7323095Y-14153524D01*
X7332619Y-14172571D01*
X7342143Y-14210667D01*
X7342143Y-14258286D01*
X7332619Y-14296381D01*
X7323095Y-14315428D01*
X7313571Y-14324952D01*
X7294524Y-14334476D01*
X7275476Y-14334476D01*
X7256428Y-14324952D01*
X7246905Y-14315428D01*
X7237381Y-14296381D01*
X7227857Y-14258286D01*
X7227857Y-14210667D01*
X7237381Y-14172571D01*
X7246905Y-14153524D01*
X7256428Y-14144000D01*
X7275476Y-14134476D01*
X7427857Y-14315428D02*
X7437381Y-14324952D01*
X7427857Y-14334476D01*
X7418333Y-14324952D01*
X7427857Y-14315428D01*
X7427857Y-14334476D01*
X7561190Y-14134476D02*
X7580238Y-14134476D01*
X7599286Y-14144000D01*
X7608809Y-14153524D01*
X7618333Y-14172571D01*
X7627857Y-14210667D01*
X7627857Y-14258286D01*
X7618333Y-14296381D01*
X7608809Y-14315428D01*
X7599286Y-14324952D01*
X7580238Y-14334476D01*
X7561190Y-14334476D01*
X7542143Y-14324952D01*
X7532619Y-14315428D01*
X7523095Y-14296381D01*
X7513571Y-14258286D01*
X7513571Y-14210667D01*
X7523095Y-14172571D01*
X7532619Y-14153524D01*
X7542143Y-14144000D01*
X7561190Y-14134476D01*
X7694524Y-14134476D02*
X7818333Y-14134476D01*
X7751667Y-14210667D01*
X7780238Y-14210667D01*
X7799286Y-14220190D01*
X7808809Y-14229714D01*
X7818333Y-14248762D01*
X7818333Y-14296381D01*
X7808809Y-14315428D01*
X7799286Y-14324952D01*
X7780238Y-14334476D01*
X7723095Y-14334476D01*
X7704048Y-14324952D01*
X7694524Y-14315428D01*
X7885000Y-14134476D02*
X8008809Y-14134476D01*
X7942143Y-14210667D01*
X7970714Y-14210667D01*
X7989762Y-14220190D01*
X7999286Y-14229714D01*
X8008809Y-14248762D01*
X8008809Y-14296381D01*
X7999286Y-14315428D01*
X7989762Y-14324952D01*
X7970714Y-14334476D01*
X7913571Y-14334476D01*
X7894524Y-14324952D01*
X7885000Y-14315428D01*
X8189762Y-14134476D02*
X8094524Y-14134476D01*
X8085000Y-14229714D01*
X8094524Y-14220190D01*
X8113571Y-14210667D01*
X8161190Y-14210667D01*
X8180238Y-14220190D01*
X8189762Y-14229714D01*
X8199286Y-14248762D01*
X8199286Y-14296381D01*
X8189762Y-14315428D01*
X8180238Y-14324952D01*
X8161190Y-14334476D01*
X8113571Y-14334476D01*
X8094524Y-14324952D01*
X8085000Y-14315428D01*
X8275476Y-14134476D02*
X8275476Y-14172571D01*
X8351667Y-14134476D02*
X8351667Y-14172571D01*
X8646905Y-14410667D02*
X8637381Y-14401143D01*
X8618333Y-14372571D01*
X8608810Y-14353524D01*
X8599286Y-14324952D01*
X8589762Y-14277333D01*
X8589762Y-14239238D01*
X8599286Y-14191619D01*
X8608810Y-14163048D01*
X8618333Y-14144000D01*
X8637381Y-14115428D01*
X8646905Y-14105905D01*
X8751667Y-14220190D02*
X8732619Y-14210667D01*
X8723095Y-14201143D01*
X8713571Y-14182095D01*
X8713571Y-14172571D01*
X8723095Y-14153524D01*
X8732619Y-14144000D01*
X8751667Y-14134476D01*
X8789762Y-14134476D01*
X8808810Y-14144000D01*
X8818333Y-14153524D01*
X8827857Y-14172571D01*
X8827857Y-14182095D01*
X8818333Y-14201143D01*
X8808810Y-14210667D01*
X8789762Y-14220190D01*
X8751667Y-14220190D01*
X8732619Y-14229714D01*
X8723095Y-14239238D01*
X8713571Y-14258286D01*
X8713571Y-14296381D01*
X8723095Y-14315428D01*
X8732619Y-14324952D01*
X8751667Y-14334476D01*
X8789762Y-14334476D01*
X8808810Y-14324952D01*
X8818333Y-14315428D01*
X8827857Y-14296381D01*
X8827857Y-14258286D01*
X8818333Y-14239238D01*
X8808810Y-14229714D01*
X8789762Y-14220190D01*
X8999286Y-14134476D02*
X8961190Y-14134476D01*
X8942143Y-14144000D01*
X8932619Y-14153524D01*
X8913571Y-14182095D01*
X8904048Y-14220190D01*
X8904048Y-14296381D01*
X8913571Y-14315428D01*
X8923095Y-14324952D01*
X8942143Y-14334476D01*
X8980238Y-14334476D01*
X8999286Y-14324952D01*
X9008810Y-14315428D01*
X9018333Y-14296381D01*
X9018333Y-14248762D01*
X9008810Y-14229714D01*
X8999286Y-14220190D01*
X8980238Y-14210667D01*
X8942143Y-14210667D01*
X8923095Y-14220190D01*
X8913571Y-14229714D01*
X8904048Y-14248762D01*
X9256429Y-14334476D02*
X9256429Y-14134476D01*
X9342143Y-14334476D02*
X9342143Y-14229714D01*
X9332619Y-14210667D01*
X9313571Y-14201143D01*
X9285000Y-14201143D01*
X9265952Y-14210667D01*
X9256429Y-14220190D01*
X9465952Y-14334476D02*
X9446905Y-14324952D01*
X9437381Y-14315428D01*
X9427857Y-14296381D01*
X9427857Y-14239238D01*
X9437381Y-14220190D01*
X9446905Y-14210667D01*
X9465952Y-14201143D01*
X9494524Y-14201143D01*
X9513571Y-14210667D01*
X9523095Y-14220190D01*
X9532619Y-14239238D01*
X9532619Y-14296381D01*
X9523095Y-14315428D01*
X9513571Y-14324952D01*
X9494524Y-14334476D01*
X9465952Y-14334476D01*
X9646905Y-14334476D02*
X9627857Y-14324952D01*
X9618333Y-14305905D01*
X9618333Y-14134476D01*
X9799286Y-14324952D02*
X9780238Y-14334476D01*
X9742143Y-14334476D01*
X9723095Y-14324952D01*
X9713571Y-14305905D01*
X9713571Y-14229714D01*
X9723095Y-14210667D01*
X9742143Y-14201143D01*
X9780238Y-14201143D01*
X9799286Y-14210667D01*
X9808810Y-14229714D01*
X9808810Y-14248762D01*
X9713571Y-14267809D01*
X9885000Y-14324952D02*
X9904048Y-14334476D01*
X9942143Y-14334476D01*
X9961190Y-14324952D01*
X9970714Y-14305905D01*
X9970714Y-14296381D01*
X9961190Y-14277333D01*
X9942143Y-14267809D01*
X9913571Y-14267809D01*
X9894524Y-14258286D01*
X9885000Y-14239238D01*
X9885000Y-14229714D01*
X9894524Y-14210667D01*
X9913571Y-14201143D01*
X9942143Y-14201143D01*
X9961190Y-14210667D01*
X10037381Y-14410667D02*
X10046905Y-14401143D01*
X10065952Y-14372571D01*
X10075476Y-14353524D01*
X10085000Y-14324952D01*
X10094524Y-14277333D01*
X10094524Y-14239238D01*
X10085000Y-14191619D01*
X10075476Y-14163048D01*
X10065952Y-14144000D01*
X10046905Y-14115428D01*
X10037381Y-14105905D01*
D10*
X5025000Y-14458000D02*
X5025000Y-14558000D01*
X4975000Y-14508000D02*
X5075000Y-14508000D01*
D11*
X5437381Y-14598476D02*
X5323095Y-14598476D01*
X5380238Y-14598476D02*
X5380238Y-14398476D01*
X5361190Y-14427048D01*
X5342143Y-14446095D01*
X5323095Y-14455619D01*
X5523095Y-14579428D02*
X5532619Y-14588952D01*
X5523095Y-14598476D01*
X5513571Y-14588952D01*
X5523095Y-14579428D01*
X5523095Y-14598476D01*
X5656428Y-14398476D02*
X5675476Y-14398476D01*
X5694524Y-14408000D01*
X5704048Y-14417524D01*
X5713571Y-14436571D01*
X5723095Y-14474667D01*
X5723095Y-14522286D01*
X5713571Y-14560381D01*
X5704048Y-14579428D01*
X5694524Y-14588952D01*
X5675476Y-14598476D01*
X5656428Y-14598476D01*
X5637381Y-14588952D01*
X5627857Y-14579428D01*
X5618333Y-14560381D01*
X5608809Y-14522286D01*
X5608809Y-14474667D01*
X5618333Y-14436571D01*
X5627857Y-14417524D01*
X5637381Y-14408000D01*
X5656428Y-14398476D01*
X5846905Y-14398476D02*
X5865952Y-14398476D01*
X5885000Y-14408000D01*
X5894524Y-14417524D01*
X5904048Y-14436571D01*
X5913571Y-14474667D01*
X5913571Y-14522286D01*
X5904048Y-14560381D01*
X5894524Y-14579428D01*
X5885000Y-14588952D01*
X5865952Y-14598476D01*
X5846905Y-14598476D01*
X5827857Y-14588952D01*
X5818333Y-14579428D01*
X5808809Y-14560381D01*
X5799286Y-14522286D01*
X5799286Y-14474667D01*
X5808809Y-14436571D01*
X5818333Y-14417524D01*
X5827857Y-14408000D01*
X5846905Y-14398476D01*
X6037381Y-14398476D02*
X6056428Y-14398476D01*
X6075476Y-14408000D01*
X6085000Y-14417524D01*
X6094524Y-14436571D01*
X6104048Y-14474667D01*
X6104048Y-14522286D01*
X6094524Y-14560381D01*
X6085000Y-14579428D01*
X6075476Y-14588952D01*
X6056428Y-14598476D01*
X6037381Y-14598476D01*
X6018333Y-14588952D01*
X6008809Y-14579428D01*
X5999286Y-14560381D01*
X5989762Y-14522286D01*
X5989762Y-14474667D01*
X5999286Y-14436571D01*
X6008809Y-14417524D01*
X6018333Y-14408000D01*
X6037381Y-14398476D01*
X6189762Y-14598476D02*
X6189762Y-14465143D01*
X6189762Y-14484190D02*
X6199286Y-14474667D01*
X6218333Y-14465143D01*
X6246905Y-14465143D01*
X6265952Y-14474667D01*
X6275476Y-14493714D01*
X6275476Y-14598476D01*
X6275476Y-14493714D02*
X6285000Y-14474667D01*
X6304048Y-14465143D01*
X6332619Y-14465143D01*
X6351667Y-14474667D01*
X6361190Y-14493714D01*
X6361190Y-14598476D01*
X6456428Y-14598476D02*
X6456428Y-14465143D01*
X6456428Y-14484190D02*
X6465952Y-14474667D01*
X6485000Y-14465143D01*
X6513571Y-14465143D01*
X6532619Y-14474667D01*
X6542143Y-14493714D01*
X6542143Y-14598476D01*
X6542143Y-14493714D02*
X6551667Y-14474667D01*
X6570714Y-14465143D01*
X6599286Y-14465143D01*
X6618333Y-14474667D01*
X6627857Y-14493714D01*
X6627857Y-14598476D01*
X7018333Y-14388952D02*
X6846905Y-14646095D01*
X7275476Y-14398476D02*
X7294524Y-14398476D01*
X7313571Y-14408000D01*
X7323095Y-14417524D01*
X7332619Y-14436571D01*
X7342143Y-14474667D01*
X7342143Y-14522286D01*
X7332619Y-14560381D01*
X7323095Y-14579428D01*
X7313571Y-14588952D01*
X7294524Y-14598476D01*
X7275476Y-14598476D01*
X7256428Y-14588952D01*
X7246905Y-14579428D01*
X7237381Y-14560381D01*
X7227857Y-14522286D01*
X7227857Y-14474667D01*
X7237381Y-14436571D01*
X7246905Y-14417524D01*
X7256428Y-14408000D01*
X7275476Y-14398476D01*
X7427857Y-14579428D02*
X7437381Y-14588952D01*
X7427857Y-14598476D01*
X7418333Y-14588952D01*
X7427857Y-14579428D01*
X7427857Y-14598476D01*
X7561190Y-14398476D02*
X7580238Y-14398476D01*
X7599286Y-14408000D01*
X7608809Y-14417524D01*
X7618333Y-14436571D01*
X7627857Y-14474667D01*
X7627857Y-14522286D01*
X7618333Y-14560381D01*
X7608809Y-14579428D01*
X7599286Y-14588952D01*
X7580238Y-14598476D01*
X7561190Y-14598476D01*
X7542143Y-14588952D01*
X7532619Y-14579428D01*
X7523095Y-14560381D01*
X7513571Y-14522286D01*
X7513571Y-14474667D01*
X7523095Y-14436571D01*
X7532619Y-14417524D01*
X7542143Y-14408000D01*
X7561190Y-14398476D01*
X7694524Y-14398476D02*
X7818333Y-14398476D01*
X7751667Y-14474667D01*
X7780238Y-14474667D01*
X7799286Y-14484190D01*
X7808809Y-14493714D01*
X7818333Y-14512762D01*
X7818333Y-14560381D01*
X7808809Y-14579428D01*
X7799286Y-14588952D01*
X7780238Y-14598476D01*
X7723095Y-14598476D01*
X7704048Y-14588952D01*
X7694524Y-14579428D01*
X7913571Y-14598476D02*
X7951667Y-14598476D01*
X7970714Y-14588952D01*
X7980238Y-14579428D01*
X7999286Y-14550857D01*
X8008809Y-14512762D01*
X8008809Y-14436571D01*
X7999286Y-14417524D01*
X7989762Y-14408000D01*
X7970714Y-14398476D01*
X7932619Y-14398476D01*
X7913571Y-14408000D01*
X7904048Y-14417524D01*
X7894524Y-14436571D01*
X7894524Y-14484190D01*
X7904048Y-14503238D01*
X7913571Y-14512762D01*
X7932619Y-14522286D01*
X7970714Y-14522286D01*
X7989762Y-14512762D01*
X7999286Y-14503238D01*
X8008809Y-14484190D01*
X8180238Y-14465143D02*
X8180238Y-14598476D01*
X8132619Y-14388952D02*
X8085000Y-14531809D01*
X8208809Y-14531809D01*
X8275476Y-14398476D02*
X8275476Y-14436571D01*
X8351667Y-14398476D02*
X8351667Y-14436571D01*
X8646905Y-14674667D02*
X8637381Y-14665143D01*
X8618333Y-14636571D01*
X8608810Y-14617524D01*
X8599286Y-14588952D01*
X8589762Y-14541333D01*
X8589762Y-14503238D01*
X8599286Y-14455619D01*
X8608810Y-14427048D01*
X8618333Y-14408000D01*
X8637381Y-14379428D01*
X8646905Y-14369905D01*
X8808810Y-14465143D02*
X8808810Y-14598476D01*
X8761190Y-14388952D02*
X8713571Y-14531809D01*
X8837381Y-14531809D01*
X8942143Y-14484190D02*
X8923095Y-14474667D01*
X8913571Y-14465143D01*
X8904048Y-14446095D01*
X8904048Y-14436571D01*
X8913571Y-14417524D01*
X8923095Y-14408000D01*
X8942143Y-14398476D01*
X8980238Y-14398476D01*
X8999286Y-14408000D01*
X9008810Y-14417524D01*
X9018333Y-14436571D01*
X9018333Y-14446095D01*
X9008810Y-14465143D01*
X8999286Y-14474667D01*
X8980238Y-14484190D01*
X8942143Y-14484190D01*
X8923095Y-14493714D01*
X8913571Y-14503238D01*
X8904048Y-14522286D01*
X8904048Y-14560381D01*
X8913571Y-14579428D01*
X8923095Y-14588952D01*
X8942143Y-14598476D01*
X8980238Y-14598476D01*
X8999286Y-14588952D01*
X9008810Y-14579428D01*
X9018333Y-14560381D01*
X9018333Y-14522286D01*
X9008810Y-14503238D01*
X8999286Y-14493714D01*
X8980238Y-14484190D01*
X9256429Y-14598476D02*
X9256429Y-14398476D01*
X9342143Y-14598476D02*
X9342143Y-14493714D01*
X9332619Y-14474667D01*
X9313571Y-14465143D01*
X9285000Y-14465143D01*
X9265952Y-14474667D01*
X9256429Y-14484190D01*
X9465952Y-14598476D02*
X9446905Y-14588952D01*
X9437381Y-14579428D01*
X9427857Y-14560381D01*
X9427857Y-14503238D01*
X9437381Y-14484190D01*
X9446905Y-14474667D01*
X9465952Y-14465143D01*
X9494524Y-14465143D01*
X9513571Y-14474667D01*
X9523095Y-14484190D01*
X9532619Y-14503238D01*
X9532619Y-14560381D01*
X9523095Y-14579428D01*
X9513571Y-14588952D01*
X9494524Y-14598476D01*
X9465952Y-14598476D01*
X9646905Y-14598476D02*
X9627857Y-14588952D01*
X9618333Y-14569905D01*
X9618333Y-14398476D01*
X9799286Y-14588952D02*
X9780238Y-14598476D01*
X9742143Y-14598476D01*
X9723095Y-14588952D01*
X9713571Y-14569905D01*
X9713571Y-14493714D01*
X9723095Y-14474667D01*
X9742143Y-14465143D01*
X9780238Y-14465143D01*
X9799286Y-14474667D01*
X9808810Y-14493714D01*
X9808810Y-14512762D01*
X9713571Y-14531809D01*
X9885000Y-14588952D02*
X9904048Y-14598476D01*
X9942143Y-14598476D01*
X9961190Y-14588952D01*
X9970714Y-14569905D01*
X9970714Y-14560381D01*
X9961190Y-14541333D01*
X9942143Y-14531809D01*
X9913571Y-14531809D01*
X9894524Y-14522286D01*
X9885000Y-14503238D01*
X9885000Y-14493714D01*
X9894524Y-14474667D01*
X9913571Y-14465143D01*
X9942143Y-14465143D01*
X9961190Y-14474667D01*
X10037381Y-14674667D02*
X10046905Y-14665143D01*
X10065952Y-14636571D01*
X10075476Y-14617524D01*
X10085000Y-14588952D01*
X10094524Y-14541333D01*
X10094524Y-14503238D01*
X10085000Y-14455619D01*
X10075476Y-14427048D01*
X10065952Y-14408000D01*
X10046905Y-14379428D01*
X10037381Y-14369905D01*
D14*
X5060063Y-14808063D02*
X5060063Y-14735937D01*
X4987937Y-14735937D01*
X4987937Y-14808063D01*
X5060063Y-14808063D01*
D11*
X5437381Y-14862476D02*
X5323095Y-14862476D01*
X5380238Y-14862476D02*
X5380238Y-14662476D01*
X5361190Y-14691048D01*
X5342143Y-14710095D01*
X5323095Y-14719619D01*
X5523095Y-14843428D02*
X5532619Y-14852952D01*
X5523095Y-14862476D01*
X5513571Y-14852952D01*
X5523095Y-14843428D01*
X5523095Y-14862476D01*
X5656428Y-14662476D02*
X5675476Y-14662476D01*
X5694524Y-14672000D01*
X5704048Y-14681524D01*
X5713571Y-14700571D01*
X5723095Y-14738667D01*
X5723095Y-14786286D01*
X5713571Y-14824381D01*
X5704048Y-14843428D01*
X5694524Y-14852952D01*
X5675476Y-14862476D01*
X5656428Y-14862476D01*
X5637381Y-14852952D01*
X5627857Y-14843428D01*
X5618333Y-14824381D01*
X5608809Y-14786286D01*
X5608809Y-14738667D01*
X5618333Y-14700571D01*
X5627857Y-14681524D01*
X5637381Y-14672000D01*
X5656428Y-14662476D01*
X5799286Y-14681524D02*
X5808809Y-14672000D01*
X5827857Y-14662476D01*
X5875476Y-14662476D01*
X5894524Y-14672000D01*
X5904048Y-14681524D01*
X5913571Y-14700571D01*
X5913571Y-14719619D01*
X5904048Y-14748190D01*
X5789762Y-14862476D01*
X5913571Y-14862476D01*
X6037381Y-14662476D02*
X6056428Y-14662476D01*
X6075476Y-14672000D01*
X6085000Y-14681524D01*
X6094524Y-14700571D01*
X6104048Y-14738667D01*
X6104048Y-14786286D01*
X6094524Y-14824381D01*
X6085000Y-14843428D01*
X6075476Y-14852952D01*
X6056428Y-14862476D01*
X6037381Y-14862476D01*
X6018333Y-14852952D01*
X6008809Y-14843428D01*
X5999286Y-14824381D01*
X5989762Y-14786286D01*
X5989762Y-14738667D01*
X5999286Y-14700571D01*
X6008809Y-14681524D01*
X6018333Y-14672000D01*
X6037381Y-14662476D01*
X6189762Y-14862476D02*
X6189762Y-14729143D01*
X6189762Y-14748190D02*
X6199286Y-14738667D01*
X6218333Y-14729143D01*
X6246905Y-14729143D01*
X6265952Y-14738667D01*
X6275476Y-14757714D01*
X6275476Y-14862476D01*
X6275476Y-14757714D02*
X6285000Y-14738667D01*
X6304048Y-14729143D01*
X6332619Y-14729143D01*
X6351667Y-14738667D01*
X6361190Y-14757714D01*
X6361190Y-14862476D01*
X6456428Y-14862476D02*
X6456428Y-14729143D01*
X6456428Y-14748190D02*
X6465952Y-14738667D01*
X6485000Y-14729143D01*
X6513571Y-14729143D01*
X6532619Y-14738667D01*
X6542143Y-14757714D01*
X6542143Y-14862476D01*
X6542143Y-14757714D02*
X6551667Y-14738667D01*
X6570714Y-14729143D01*
X6599286Y-14729143D01*
X6618333Y-14738667D01*
X6627857Y-14757714D01*
X6627857Y-14862476D01*
X7018333Y-14652952D02*
X6846905Y-14910095D01*
X7275476Y-14662476D02*
X7294524Y-14662476D01*
X7313571Y-14672000D01*
X7323095Y-14681524D01*
X7332619Y-14700571D01*
X7342143Y-14738667D01*
X7342143Y-14786286D01*
X7332619Y-14824381D01*
X7323095Y-14843428D01*
X7313571Y-14852952D01*
X7294524Y-14862476D01*
X7275476Y-14862476D01*
X7256428Y-14852952D01*
X7246905Y-14843428D01*
X7237381Y-14824381D01*
X7227857Y-14786286D01*
X7227857Y-14738667D01*
X7237381Y-14700571D01*
X7246905Y-14681524D01*
X7256428Y-14672000D01*
X7275476Y-14662476D01*
X7427857Y-14843428D02*
X7437381Y-14852952D01*
X7427857Y-14862476D01*
X7418333Y-14852952D01*
X7427857Y-14843428D01*
X7427857Y-14862476D01*
X7561190Y-14662476D02*
X7580238Y-14662476D01*
X7599286Y-14672000D01*
X7608809Y-14681524D01*
X7618333Y-14700571D01*
X7627857Y-14738667D01*
X7627857Y-14786286D01*
X7618333Y-14824381D01*
X7608809Y-14843428D01*
X7599286Y-14852952D01*
X7580238Y-14862476D01*
X7561190Y-14862476D01*
X7542143Y-14852952D01*
X7532619Y-14843428D01*
X7523095Y-14824381D01*
X7513571Y-14786286D01*
X7513571Y-14738667D01*
X7523095Y-14700571D01*
X7532619Y-14681524D01*
X7542143Y-14672000D01*
X7561190Y-14662476D01*
X7799286Y-14729143D02*
X7799286Y-14862476D01*
X7751667Y-14652952D02*
X7704048Y-14795809D01*
X7827857Y-14795809D01*
X7942143Y-14662476D02*
X7961190Y-14662476D01*
X7980238Y-14672000D01*
X7989762Y-14681524D01*
X7999286Y-14700571D01*
X8008809Y-14738667D01*
X8008809Y-14786286D01*
X7999286Y-14824381D01*
X7989762Y-14843428D01*
X7980238Y-14852952D01*
X7961190Y-14862476D01*
X7942143Y-14862476D01*
X7923095Y-14852952D01*
X7913571Y-14843428D01*
X7904048Y-14824381D01*
X7894524Y-14786286D01*
X7894524Y-14738667D01*
X7904048Y-14700571D01*
X7913571Y-14681524D01*
X7923095Y-14672000D01*
X7942143Y-14662476D01*
X8085000Y-14681524D02*
X8094524Y-14672000D01*
X8113571Y-14662476D01*
X8161190Y-14662476D01*
X8180238Y-14672000D01*
X8189762Y-14681524D01*
X8199286Y-14700571D01*
X8199286Y-14719619D01*
X8189762Y-14748190D01*
X8075476Y-14862476D01*
X8199286Y-14862476D01*
X8275476Y-14662476D02*
X8275476Y-14700571D01*
X8351667Y-14662476D02*
X8351667Y-14700571D01*
X8646905Y-14938667D02*
X8637381Y-14929143D01*
X8618333Y-14900571D01*
X8608810Y-14881524D01*
X8599286Y-14852952D01*
X8589762Y-14805333D01*
X8589762Y-14767238D01*
X8599286Y-14719619D01*
X8608810Y-14691048D01*
X8618333Y-14672000D01*
X8637381Y-14643428D01*
X8646905Y-14633905D01*
X8751667Y-14748190D02*
X8732619Y-14738667D01*
X8723095Y-14729143D01*
X8713571Y-14710095D01*
X8713571Y-14700571D01*
X8723095Y-14681524D01*
X8732619Y-14672000D01*
X8751667Y-14662476D01*
X8789762Y-14662476D01*
X8808810Y-14672000D01*
X8818333Y-14681524D01*
X8827857Y-14700571D01*
X8827857Y-14710095D01*
X8818333Y-14729143D01*
X8808810Y-14738667D01*
X8789762Y-14748190D01*
X8751667Y-14748190D01*
X8732619Y-14757714D01*
X8723095Y-14767238D01*
X8713571Y-14786286D01*
X8713571Y-14824381D01*
X8723095Y-14843428D01*
X8732619Y-14852952D01*
X8751667Y-14862476D01*
X8789762Y-14862476D01*
X8808810Y-14852952D01*
X8818333Y-14843428D01*
X8827857Y-14824381D01*
X8827857Y-14786286D01*
X8818333Y-14767238D01*
X8808810Y-14757714D01*
X8789762Y-14748190D01*
X9065952Y-14862476D02*
X9065952Y-14662476D01*
X9151667Y-14862476D02*
X9151667Y-14757714D01*
X9142143Y-14738667D01*
X9123095Y-14729143D01*
X9094524Y-14729143D01*
X9075476Y-14738667D01*
X9065952Y-14748190D01*
X9275476Y-14862476D02*
X9256429Y-14852952D01*
X9246905Y-14843428D01*
X9237381Y-14824381D01*
X9237381Y-14767238D01*
X9246905Y-14748190D01*
X9256429Y-14738667D01*
X9275476Y-14729143D01*
X9304048Y-14729143D01*
X9323095Y-14738667D01*
X9332619Y-14748190D01*
X9342143Y-14767238D01*
X9342143Y-14824381D01*
X9332619Y-14843428D01*
X9323095Y-14852952D01*
X9304048Y-14862476D01*
X9275476Y-14862476D01*
X9456429Y-14862476D02*
X9437381Y-14852952D01*
X9427857Y-14833905D01*
X9427857Y-14662476D01*
X9608810Y-14852952D02*
X9589762Y-14862476D01*
X9551667Y-14862476D01*
X9532619Y-14852952D01*
X9523095Y-14833905D01*
X9523095Y-14757714D01*
X9532619Y-14738667D01*
X9551667Y-14729143D01*
X9589762Y-14729143D01*
X9608810Y-14738667D01*
X9618333Y-14757714D01*
X9618333Y-14776762D01*
X9523095Y-14795809D01*
X9694524Y-14852952D02*
X9713571Y-14862476D01*
X9751667Y-14862476D01*
X9770714Y-14852952D01*
X9780238Y-14833905D01*
X9780238Y-14824381D01*
X9770714Y-14805333D01*
X9751667Y-14795809D01*
X9723095Y-14795809D01*
X9704048Y-14786286D01*
X9694524Y-14767238D01*
X9694524Y-14757714D01*
X9704048Y-14738667D01*
X9723095Y-14729143D01*
X9751667Y-14729143D01*
X9770714Y-14738667D01*
X9846905Y-14938667D02*
X9856429Y-14929143D01*
X9875476Y-14900571D01*
X9885000Y-14881524D01*
X9894524Y-14852952D01*
X9904048Y-14805333D01*
X9904048Y-14767238D01*
X9894524Y-14719619D01*
X9885000Y-14691048D01*
X9875476Y-14672000D01*
X9856429Y-14643428D01*
X9846905Y-14633905D01*
D15*
X5010000Y-15101000D02*
X5075000Y-15036000D01*
X5010000Y-14971000D01*
X4945000Y-15036000D01*
X5010000Y-15101000D01*
D11*
X5437381Y-15126476D02*
X5323095Y-15126476D01*
X5380238Y-15126476D02*
X5380238Y-14926476D01*
X5361190Y-14955048D01*
X5342143Y-14974095D01*
X5323095Y-14983619D01*
X5523095Y-15107428D02*
X5532619Y-15116952D01*
X5523095Y-15126476D01*
X5513571Y-15116952D01*
X5523095Y-15107428D01*
X5523095Y-15126476D01*
X5599286Y-14926476D02*
X5723095Y-14926476D01*
X5656428Y-15002667D01*
X5685000Y-15002667D01*
X5704048Y-15012190D01*
X5713571Y-15021714D01*
X5723095Y-15040762D01*
X5723095Y-15088381D01*
X5713571Y-15107428D01*
X5704048Y-15116952D01*
X5685000Y-15126476D01*
X5627857Y-15126476D01*
X5608809Y-15116952D01*
X5599286Y-15107428D01*
X5846905Y-14926476D02*
X5865952Y-14926476D01*
X5885000Y-14936000D01*
X5894524Y-14945524D01*
X5904048Y-14964571D01*
X5913571Y-15002667D01*
X5913571Y-15050286D01*
X5904048Y-15088381D01*
X5894524Y-15107428D01*
X5885000Y-15116952D01*
X5865952Y-15126476D01*
X5846905Y-15126476D01*
X5827857Y-15116952D01*
X5818333Y-15107428D01*
X5808809Y-15088381D01*
X5799286Y-15050286D01*
X5799286Y-15002667D01*
X5808809Y-14964571D01*
X5818333Y-14945524D01*
X5827857Y-14936000D01*
X5846905Y-14926476D01*
X6037381Y-14926476D02*
X6056428Y-14926476D01*
X6075476Y-14936000D01*
X6085000Y-14945524D01*
X6094524Y-14964571D01*
X6104048Y-15002667D01*
X6104048Y-15050286D01*
X6094524Y-15088381D01*
X6085000Y-15107428D01*
X6075476Y-15116952D01*
X6056428Y-15126476D01*
X6037381Y-15126476D01*
X6018333Y-15116952D01*
X6008809Y-15107428D01*
X5999286Y-15088381D01*
X5989762Y-15050286D01*
X5989762Y-15002667D01*
X5999286Y-14964571D01*
X6008809Y-14945524D01*
X6018333Y-14936000D01*
X6037381Y-14926476D01*
X6189762Y-15126476D02*
X6189762Y-14993143D01*
X6189762Y-15012190D02*
X6199286Y-15002667D01*
X6218333Y-14993143D01*
X6246905Y-14993143D01*
X6265952Y-15002667D01*
X6275476Y-15021714D01*
X6275476Y-15126476D01*
X6275476Y-15021714D02*
X6285000Y-15002667D01*
X6304048Y-14993143D01*
X6332619Y-14993143D01*
X6351667Y-15002667D01*
X6361190Y-15021714D01*
X6361190Y-15126476D01*
X6456428Y-15126476D02*
X6456428Y-14993143D01*
X6456428Y-15012190D02*
X6465952Y-15002667D01*
X6485000Y-14993143D01*
X6513571Y-14993143D01*
X6532619Y-15002667D01*
X6542143Y-15021714D01*
X6542143Y-15126476D01*
X6542143Y-15021714D02*
X6551667Y-15002667D01*
X6570714Y-14993143D01*
X6599286Y-14993143D01*
X6618333Y-15002667D01*
X6627857Y-15021714D01*
X6627857Y-15126476D01*
X7018333Y-14916952D02*
X6846905Y-15174095D01*
X7275476Y-14926476D02*
X7294524Y-14926476D01*
X7313571Y-14936000D01*
X7323095Y-14945524D01*
X7332619Y-14964571D01*
X7342143Y-15002667D01*
X7342143Y-15050286D01*
X7332619Y-15088381D01*
X7323095Y-15107428D01*
X7313571Y-15116952D01*
X7294524Y-15126476D01*
X7275476Y-15126476D01*
X7256428Y-15116952D01*
X7246905Y-15107428D01*
X7237381Y-15088381D01*
X7227857Y-15050286D01*
X7227857Y-15002667D01*
X7237381Y-14964571D01*
X7246905Y-14945524D01*
X7256428Y-14936000D01*
X7275476Y-14926476D01*
X7427857Y-15107428D02*
X7437381Y-15116952D01*
X7427857Y-15126476D01*
X7418333Y-15116952D01*
X7427857Y-15107428D01*
X7427857Y-15126476D01*
X7561190Y-14926476D02*
X7580238Y-14926476D01*
X7599286Y-14936000D01*
X7608809Y-14945524D01*
X7618333Y-14964571D01*
X7627857Y-15002667D01*
X7627857Y-15050286D01*
X7618333Y-15088381D01*
X7608809Y-15107428D01*
X7599286Y-15116952D01*
X7580238Y-15126476D01*
X7561190Y-15126476D01*
X7542143Y-15116952D01*
X7532619Y-15107428D01*
X7523095Y-15088381D01*
X7513571Y-15050286D01*
X7513571Y-15002667D01*
X7523095Y-14964571D01*
X7532619Y-14945524D01*
X7542143Y-14936000D01*
X7561190Y-14926476D01*
X7808809Y-14926476D02*
X7713571Y-14926476D01*
X7704048Y-15021714D01*
X7713571Y-15012190D01*
X7732619Y-15002667D01*
X7780238Y-15002667D01*
X7799286Y-15012190D01*
X7808809Y-15021714D01*
X7818333Y-15040762D01*
X7818333Y-15088381D01*
X7808809Y-15107428D01*
X7799286Y-15116952D01*
X7780238Y-15126476D01*
X7732619Y-15126476D01*
X7713571Y-15116952D01*
X7704048Y-15107428D01*
X8008809Y-15126476D02*
X7894524Y-15126476D01*
X7951667Y-15126476D02*
X7951667Y-14926476D01*
X7932619Y-14955048D01*
X7913571Y-14974095D01*
X7894524Y-14983619D01*
X8085000Y-14945524D02*
X8094524Y-14936000D01*
X8113571Y-14926476D01*
X8161190Y-14926476D01*
X8180238Y-14936000D01*
X8189762Y-14945524D01*
X8199286Y-14964571D01*
X8199286Y-14983619D01*
X8189762Y-15012190D01*
X8075476Y-15126476D01*
X8199286Y-15126476D01*
X8275476Y-14926476D02*
X8275476Y-14964571D01*
X8351667Y-14926476D02*
X8351667Y-14964571D01*
X8646905Y-15202667D02*
X8637381Y-15193143D01*
X8618333Y-15164571D01*
X8608810Y-15145524D01*
X8599286Y-15116952D01*
X8589762Y-15069333D01*
X8589762Y-15031238D01*
X8599286Y-14983619D01*
X8608810Y-14955048D01*
X8618333Y-14936000D01*
X8637381Y-14907428D01*
X8646905Y-14897905D01*
X8713571Y-14945524D02*
X8723095Y-14936000D01*
X8742143Y-14926476D01*
X8789762Y-14926476D01*
X8808810Y-14936000D01*
X8818333Y-14945524D01*
X8827857Y-14964571D01*
X8827857Y-14983619D01*
X8818333Y-15012190D01*
X8704048Y-15126476D01*
X8827857Y-15126476D01*
X9065952Y-15126476D02*
X9065952Y-14926476D01*
X9151667Y-15126476D02*
X9151667Y-15021714D01*
X9142143Y-15002667D01*
X9123095Y-14993143D01*
X9094524Y-14993143D01*
X9075476Y-15002667D01*
X9065952Y-15012190D01*
X9275476Y-15126476D02*
X9256429Y-15116952D01*
X9246905Y-15107428D01*
X9237381Y-15088381D01*
X9237381Y-15031238D01*
X9246905Y-15012190D01*
X9256429Y-15002667D01*
X9275476Y-14993143D01*
X9304048Y-14993143D01*
X9323095Y-15002667D01*
X9332619Y-15012190D01*
X9342143Y-15031238D01*
X9342143Y-15088381D01*
X9332619Y-15107428D01*
X9323095Y-15116952D01*
X9304048Y-15126476D01*
X9275476Y-15126476D01*
X9456429Y-15126476D02*
X9437381Y-15116952D01*
X9427857Y-15097905D01*
X9427857Y-14926476D01*
X9608810Y-15116952D02*
X9589762Y-15126476D01*
X9551667Y-15126476D01*
X9532619Y-15116952D01*
X9523095Y-15097905D01*
X9523095Y-15021714D01*
X9532619Y-15002667D01*
X9551667Y-14993143D01*
X9589762Y-14993143D01*
X9608810Y-15002667D01*
X9618333Y-15021714D01*
X9618333Y-15040762D01*
X9523095Y-15059809D01*
X9694524Y-15116952D02*
X9713571Y-15126476D01*
X9751667Y-15126476D01*
X9770714Y-15116952D01*
X9780238Y-15097905D01*
X9780238Y-15088381D01*
X9770714Y-15069333D01*
X9751667Y-15059809D01*
X9723095Y-15059809D01*
X9704048Y-15050286D01*
X9694524Y-15031238D01*
X9694524Y-15021714D01*
X9704048Y-15002667D01*
X9723095Y-14993143D01*
X9751667Y-14993143D01*
X9770714Y-15002667D01*
X9846905Y-15202667D02*
X9856429Y-15193143D01*
X9875476Y-15164571D01*
X9885000Y-15145524D01*
X9894524Y-15116952D01*
X9904048Y-15069333D01*
X9904048Y-15031238D01*
X9894524Y-14983619D01*
X9885000Y-14955048D01*
X9875476Y-14936000D01*
X9856429Y-14907428D01*
X9846905Y-14897905D01*
X4875000Y-15200000D02*
X5075000Y-15400000D01*
X5075000Y-15200000D02*
X4875000Y-15400000D01*
X5075000Y-15300000D02*
G75*
G03*
X5075000Y-15300000I-100000J0D01*
G01*
X5313571Y-15190476D02*
X5437381Y-15190476D01*
X5370714Y-15266667D01*
X5399286Y-15266667D01*
X5418333Y-15276190D01*
X5427857Y-15285714D01*
X5437381Y-15304762D01*
X5437381Y-15352381D01*
X5427857Y-15371428D01*
X5418333Y-15380952D01*
X5399286Y-15390476D01*
X5342143Y-15390476D01*
X5323095Y-15380952D01*
X5313571Y-15371428D01*
X5523095Y-15371428D02*
X5532619Y-15380952D01*
X5523095Y-15390476D01*
X5513571Y-15380952D01*
X5523095Y-15371428D01*
X5523095Y-15390476D01*
X5608809Y-15209524D02*
X5618333Y-15200000D01*
X5637381Y-15190476D01*
X5685000Y-15190476D01*
X5704048Y-15200000D01*
X5713571Y-15209524D01*
X5723095Y-15228571D01*
X5723095Y-15247619D01*
X5713571Y-15276190D01*
X5599286Y-15390476D01*
X5723095Y-15390476D01*
X5846905Y-15190476D02*
X5865952Y-15190476D01*
X5885000Y-15200000D01*
X5894524Y-15209524D01*
X5904048Y-15228571D01*
X5913571Y-15266667D01*
X5913571Y-15314286D01*
X5904048Y-15352381D01*
X5894524Y-15371428D01*
X5885000Y-15380952D01*
X5865952Y-15390476D01*
X5846905Y-15390476D01*
X5827857Y-15380952D01*
X5818333Y-15371428D01*
X5808809Y-15352381D01*
X5799286Y-15314286D01*
X5799286Y-15266667D01*
X5808809Y-15228571D01*
X5818333Y-15209524D01*
X5827857Y-15200000D01*
X5846905Y-15190476D01*
X6037381Y-15190476D02*
X6056428Y-15190476D01*
X6075476Y-15200000D01*
X6085000Y-15209524D01*
X6094524Y-15228571D01*
X6104048Y-15266667D01*
X6104048Y-15314286D01*
X6094524Y-15352381D01*
X6085000Y-15371428D01*
X6075476Y-15380952D01*
X6056428Y-15390476D01*
X6037381Y-15390476D01*
X6018333Y-15380952D01*
X6008809Y-15371428D01*
X5999286Y-15352381D01*
X5989762Y-15314286D01*
X5989762Y-15266667D01*
X5999286Y-15228571D01*
X6008809Y-15209524D01*
X6018333Y-15200000D01*
X6037381Y-15190476D01*
X6189762Y-15390476D02*
X6189762Y-15257143D01*
X6189762Y-15276190D02*
X6199286Y-15266667D01*
X6218333Y-15257143D01*
X6246905Y-15257143D01*
X6265952Y-15266667D01*
X6275476Y-15285714D01*
X6275476Y-15390476D01*
X6275476Y-15285714D02*
X6285000Y-15266667D01*
X6304048Y-15257143D01*
X6332619Y-15257143D01*
X6351667Y-15266667D01*
X6361190Y-15285714D01*
X6361190Y-15390476D01*
X6456428Y-15390476D02*
X6456428Y-15257143D01*
X6456428Y-15276190D02*
X6465952Y-15266667D01*
X6485000Y-15257143D01*
X6513571Y-15257143D01*
X6532619Y-15266667D01*
X6542143Y-15285714D01*
X6542143Y-15390476D01*
X6542143Y-15285714D02*
X6551667Y-15266667D01*
X6570714Y-15257143D01*
X6599286Y-15257143D01*
X6618333Y-15266667D01*
X6627857Y-15285714D01*
X6627857Y-15390476D01*
X7018333Y-15180952D02*
X6846905Y-15438095D01*
X7275476Y-15190476D02*
X7294524Y-15190476D01*
X7313571Y-15200000D01*
X7323095Y-15209524D01*
X7332619Y-15228571D01*
X7342143Y-15266667D01*
X7342143Y-15314286D01*
X7332619Y-15352381D01*
X7323095Y-15371428D01*
X7313571Y-15380952D01*
X7294524Y-15390476D01*
X7275476Y-15390476D01*
X7256428Y-15380952D01*
X7246905Y-15371428D01*
X7237381Y-15352381D01*
X7227857Y-15314286D01*
X7227857Y-15266667D01*
X7237381Y-15228571D01*
X7246905Y-15209524D01*
X7256428Y-15200000D01*
X7275476Y-15190476D01*
X7427857Y-15371428D02*
X7437381Y-15380952D01*
X7427857Y-15390476D01*
X7418333Y-15380952D01*
X7427857Y-15371428D01*
X7427857Y-15390476D01*
X7627857Y-15390476D02*
X7513571Y-15390476D01*
X7570714Y-15390476D02*
X7570714Y-15190476D01*
X7551667Y-15219048D01*
X7532619Y-15238095D01*
X7513571Y-15247619D01*
X7704048Y-15209524D02*
X7713571Y-15200000D01*
X7732619Y-15190476D01*
X7780238Y-15190476D01*
X7799286Y-15200000D01*
X7808809Y-15209524D01*
X7818333Y-15228571D01*
X7818333Y-15247619D01*
X7808809Y-15276190D01*
X7694524Y-15390476D01*
X7818333Y-15390476D01*
X7989762Y-15190476D02*
X7951667Y-15190476D01*
X7932619Y-15200000D01*
X7923095Y-15209524D01*
X7904048Y-15238095D01*
X7894524Y-15276190D01*
X7894524Y-15352381D01*
X7904048Y-15371428D01*
X7913571Y-15380952D01*
X7932619Y-15390476D01*
X7970714Y-15390476D01*
X7989762Y-15380952D01*
X7999286Y-15371428D01*
X8008809Y-15352381D01*
X8008809Y-15304762D01*
X7999286Y-15285714D01*
X7989762Y-15276190D01*
X7970714Y-15266667D01*
X7932619Y-15266667D01*
X7913571Y-15276190D01*
X7904048Y-15285714D01*
X7894524Y-15304762D01*
X8132619Y-15190476D02*
X8151667Y-15190476D01*
X8170714Y-15200000D01*
X8180238Y-15209524D01*
X8189762Y-15228571D01*
X8199286Y-15266667D01*
X8199286Y-15314286D01*
X8189762Y-15352381D01*
X8180238Y-15371428D01*
X8170714Y-15380952D01*
X8151667Y-15390476D01*
X8132619Y-15390476D01*
X8113571Y-15380952D01*
X8104048Y-15371428D01*
X8094524Y-15352381D01*
X8085000Y-15314286D01*
X8085000Y-15266667D01*
X8094524Y-15228571D01*
X8104048Y-15209524D01*
X8113571Y-15200000D01*
X8132619Y-15190476D01*
X8275476Y-15190476D02*
X8275476Y-15228571D01*
X8351667Y-15190476D02*
X8351667Y-15228571D01*
X8646905Y-15466667D02*
X8637381Y-15457143D01*
X8618333Y-15428571D01*
X8608810Y-15409524D01*
X8599286Y-15380952D01*
X8589762Y-15333333D01*
X8589762Y-15295238D01*
X8599286Y-15247619D01*
X8608810Y-15219048D01*
X8618333Y-15200000D01*
X8637381Y-15171428D01*
X8646905Y-15161905D01*
X8808810Y-15257143D02*
X8808810Y-15390476D01*
X8761190Y-15180952D02*
X8713571Y-15323809D01*
X8837381Y-15323809D01*
X9065952Y-15390476D02*
X9065952Y-15190476D01*
X9151667Y-15390476D02*
X9151667Y-15285714D01*
X9142143Y-15266667D01*
X9123095Y-15257143D01*
X9094524Y-15257143D01*
X9075476Y-15266667D01*
X9065952Y-15276190D01*
X9275476Y-15390476D02*
X9256429Y-15380952D01*
X9246905Y-15371428D01*
X9237381Y-15352381D01*
X9237381Y-15295238D01*
X9246905Y-15276190D01*
X9256429Y-15266667D01*
X9275476Y-15257143D01*
X9304048Y-15257143D01*
X9323095Y-15266667D01*
X9332619Y-15276190D01*
X9342143Y-15295238D01*
X9342143Y-15352381D01*
X9332619Y-15371428D01*
X9323095Y-15380952D01*
X9304048Y-15390476D01*
X9275476Y-15390476D01*
X9456429Y-15390476D02*
X9437381Y-15380952D01*
X9427857Y-15361905D01*
X9427857Y-15190476D01*
X9608810Y-15380952D02*
X9589762Y-15390476D01*
X9551667Y-15390476D01*
X9532619Y-15380952D01*
X9523095Y-15361905D01*
X9523095Y-15285714D01*
X9532619Y-15266667D01*
X9551667Y-15257143D01*
X9589762Y-15257143D01*
X9608810Y-15266667D01*
X9618333Y-15285714D01*
X9618333Y-15304762D01*
X9523095Y-15323809D01*
X9694524Y-15380952D02*
X9713571Y-15390476D01*
X9751667Y-15390476D01*
X9770714Y-15380952D01*
X9780238Y-15361905D01*
X9780238Y-15352381D01*
X9770714Y-15333333D01*
X9751667Y-15323809D01*
X9723095Y-15323809D01*
X9704048Y-15314286D01*
X9694524Y-15295238D01*
X9694524Y-15285714D01*
X9704048Y-15266667D01*
X9723095Y-15257143D01*
X9751667Y-15257143D01*
X9770714Y-15266667D01*
X9846905Y-15466667D02*
X9856429Y-15457143D01*
X9875476Y-15428571D01*
X9885000Y-15409524D01*
X9894524Y-15380952D01*
X9904048Y-15333333D01*
X9904048Y-15295238D01*
X9894524Y-15247619D01*
X9885000Y-15219048D01*
X9875476Y-15200000D01*
X9856429Y-15171428D01*
X9846905Y-15161905D01*
M02*
