G04 #@! TF.GenerationSoftware,KiCad,Pcbnew,6.0.9-8da3e8f707~116~ubuntu20.04.1*
G04 #@! TF.CreationDate,2023-03-28T19:05:24+02:00*
G04 #@! TF.ProjectId,six_to_six_control,7369785f-746f-45f7-9369-785f636f6e74,rev?*
G04 #@! TF.SameCoordinates,Original*
G04 #@! TF.FileFunction,Legend,Bot*
G04 #@! TF.FilePolarity,Positive*
%FSLAX46Y46*%
G04 Gerber Fmt 4.6, Leading zero omitted, Abs format (unit mm)*
G04 Created by KiCad (PCBNEW 6.0.9-8da3e8f707~116~ubuntu20.04.1) date 2023-03-28 19:05:24*
%MOMM*%
%LPD*%
G01*
G04 APERTURE LIST*
G04 Aperture macros list*
%AMRoundRect*
0 Rectangle with rounded corners*
0 $1 Rounding radius*
0 $2 $3 $4 $5 $6 $7 $8 $9 X,Y pos of 4 corners*
0 Add a 4 corners polygon primitive as box body*
4,1,4,$2,$3,$4,$5,$6,$7,$8,$9,$2,$3,0*
0 Add four circle primitives for the rounded corners*
1,1,$1+$1,$2,$3*
1,1,$1+$1,$4,$5*
1,1,$1+$1,$6,$7*
1,1,$1+$1,$8,$9*
0 Add four rect primitives between the rounded corners*
20,1,$1+$1,$2,$3,$4,$5,0*
20,1,$1+$1,$4,$5,$6,$7,0*
20,1,$1+$1,$6,$7,$8,$9,0*
20,1,$1+$1,$8,$9,$2,$3,0*%
G04 Aperture macros list end*
%ADD10C,0.150000*%
%ADD11C,0.120000*%
%ADD12C,0.127000*%
%ADD13R,1.530000X1.530000*%
%ADD14C,1.530000*%
%ADD15R,1.700000X1.700000*%
%ADD16O,1.700000X1.700000*%
%ADD17C,5.600000*%
%ADD18C,4.000000*%
%ADD19R,1.600000X1.600000*%
%ADD20C,1.600000*%
%ADD21C,3.200000*%
%ADD22RoundRect,0.237500X-0.300000X-0.237500X0.300000X-0.237500X0.300000X0.237500X-0.300000X0.237500X0*%
%ADD23C,1.358000*%
%ADD24R,1.358000X1.358000*%
%ADD25R,0.900000X1.200000*%
G04 APERTURE END LIST*
D10*
X163361666Y-124817142D02*
X163409285Y-124864761D01*
X163552142Y-124912380D01*
X163647380Y-124912380D01*
X163790238Y-124864761D01*
X163885476Y-124769523D01*
X163933095Y-124674285D01*
X163980714Y-124483809D01*
X163980714Y-124340952D01*
X163933095Y-124150476D01*
X163885476Y-124055238D01*
X163790238Y-123960000D01*
X163647380Y-123912380D01*
X163552142Y-123912380D01*
X163409285Y-123960000D01*
X163361666Y-124007619D01*
X162409285Y-124912380D02*
X162980714Y-124912380D01*
X162695000Y-124912380D02*
X162695000Y-123912380D01*
X162790238Y-124055238D01*
X162885476Y-124150476D01*
X162980714Y-124198095D01*
X163933095Y-121737380D02*
X163933095Y-120737380D01*
X163695000Y-120737380D01*
X163552142Y-120785000D01*
X163456904Y-120880238D01*
X163409285Y-120975476D01*
X163361666Y-121165952D01*
X163361666Y-121308809D01*
X163409285Y-121499285D01*
X163456904Y-121594523D01*
X163552142Y-121689761D01*
X163695000Y-121737380D01*
X163933095Y-121737380D01*
X162409285Y-121737380D02*
X162980714Y-121737380D01*
X162695000Y-121737380D02*
X162695000Y-120737380D01*
X162790238Y-120880238D01*
X162885476Y-120975476D01*
X162980714Y-121023095D01*
X176061666Y-133126442D02*
X176109285Y-133174061D01*
X176252142Y-133221680D01*
X176347380Y-133221680D01*
X176490238Y-133174061D01*
X176585476Y-133078823D01*
X176633095Y-132983585D01*
X176680714Y-132793109D01*
X176680714Y-132650252D01*
X176633095Y-132459776D01*
X176585476Y-132364538D01*
X176490238Y-132269300D01*
X176347380Y-132221680D01*
X176252142Y-132221680D01*
X176109285Y-132269300D01*
X176061666Y-132316919D01*
X175680714Y-132316919D02*
X175633095Y-132269300D01*
X175537857Y-132221680D01*
X175299761Y-132221680D01*
X175204523Y-132269300D01*
X175156904Y-132316919D01*
X175109285Y-132412157D01*
X175109285Y-132507395D01*
X175156904Y-132650252D01*
X175728333Y-133221680D01*
X175109285Y-133221680D01*
D11*
X159238733Y-123950000D02*
X159531267Y-123950000D01*
X159238733Y-124970000D02*
X159531267Y-124970000D01*
D12*
X86360000Y-42545000D02*
X86360000Y-128270000D01*
X139700000Y-128270000D02*
X139700000Y-42545000D01*
D11*
X157135000Y-122285000D02*
X157135000Y-120285000D01*
X157135000Y-122285000D02*
X161035000Y-122285000D01*
X157135000Y-120285000D02*
X161035000Y-120285000D01*
X175748733Y-131849300D02*
X176041267Y-131849300D01*
X175748733Y-130829300D02*
X176041267Y-130829300D01*
%LPC*%
D13*
X162560000Y-116841500D03*
D14*
X165100000Y-116841500D03*
X167640000Y-116841500D03*
X170180000Y-116841500D03*
X170180000Y-75621500D03*
X167640000Y-75621500D03*
X165100000Y-75621500D03*
X162560000Y-75621500D03*
D15*
X201930000Y-60960000D03*
D16*
X199390000Y-60960000D03*
X201930000Y-58420000D03*
X199390000Y-58420000D03*
X201930000Y-55880000D03*
X199390000Y-55880000D03*
X201930000Y-53340000D03*
X199390000Y-53340000D03*
D15*
X151130000Y-60960000D03*
D16*
X148590000Y-60960000D03*
X151130000Y-58420000D03*
X148590000Y-58420000D03*
X151130000Y-55880000D03*
X148590000Y-55880000D03*
X151130000Y-53340000D03*
X148590000Y-53340000D03*
D15*
X189230000Y-60960000D03*
D16*
X186690000Y-60960000D03*
X189230000Y-58420000D03*
X186690000Y-58420000D03*
X189230000Y-55880000D03*
X186690000Y-55880000D03*
X189230000Y-53340000D03*
X186690000Y-53340000D03*
D17*
X81280000Y-128270000D03*
D15*
X209550000Y-74295000D03*
D16*
X209550000Y-76835000D03*
X207010000Y-74295000D03*
X207010000Y-76835000D03*
X204470000Y-74295000D03*
X204470000Y-76835000D03*
X201930000Y-74295000D03*
X201930000Y-76835000D03*
X199390000Y-74295000D03*
X199390000Y-76835000D03*
D17*
X146050000Y-128270000D03*
X215900000Y-45085000D03*
D15*
X163830000Y-60960000D03*
D16*
X161290000Y-60960000D03*
X163830000Y-58420000D03*
X161290000Y-58420000D03*
X163830000Y-55880000D03*
X161290000Y-55880000D03*
X163830000Y-53340000D03*
X161290000Y-53340000D03*
D18*
X180785000Y-129944000D03*
X155785000Y-129944000D03*
D19*
X173825000Y-128524000D03*
D20*
X171055000Y-128524000D03*
X168285000Y-128524000D03*
X165515000Y-128524000D03*
X162745000Y-128524000D03*
X172440000Y-131364000D03*
X169670000Y-131364000D03*
X166900000Y-131364000D03*
X164130000Y-131364000D03*
D21*
X218694000Y-136271000D03*
X218694000Y-86233000D03*
X190246000Y-86233000D03*
X190246000Y-136271000D03*
D13*
X209550000Y-84455000D03*
D14*
X209550000Y-86995000D03*
X207010000Y-84455000D03*
X207010000Y-86995000D03*
X204470000Y-84455000D03*
X204470000Y-86995000D03*
X201930000Y-84455000D03*
X201930000Y-86995000D03*
X199390000Y-84455000D03*
X199390000Y-86995000D03*
D17*
X81280000Y-45085000D03*
D15*
X176530000Y-60970000D03*
D16*
X173990000Y-60970000D03*
X176530000Y-58430000D03*
X173990000Y-58430000D03*
X176530000Y-55890000D03*
X173990000Y-55890000D03*
X176530000Y-53350000D03*
X173990000Y-53350000D03*
D15*
X214630000Y-60960000D03*
D16*
X212090000Y-60960000D03*
X214630000Y-58420000D03*
X212090000Y-58420000D03*
X214630000Y-55880000D03*
X212090000Y-55880000D03*
X214630000Y-53340000D03*
X212090000Y-53340000D03*
D22*
X158522500Y-124460000D03*
X160247500Y-124460000D03*
D21*
X88900000Y-42545000D03*
X93980000Y-73025000D03*
X88900000Y-125095000D03*
X121920000Y-73025000D03*
X137160000Y-123825000D03*
D23*
X137160000Y-75565000D03*
X137160000Y-78105000D03*
X137160000Y-80645000D03*
X137160000Y-83185000D03*
X88900000Y-103505000D03*
X137160000Y-85725000D03*
X137160000Y-88265000D03*
X88900000Y-100965000D03*
X137160000Y-45085000D03*
X137160000Y-42545000D03*
X137160000Y-90805000D03*
X137160000Y-93345000D03*
X137160000Y-97409000D03*
X137160000Y-99949000D03*
X137160000Y-102489000D03*
X137160000Y-105029000D03*
X137160000Y-107569000D03*
X137160000Y-110109000D03*
X137160000Y-70485000D03*
X137160000Y-67945000D03*
X137160000Y-65405000D03*
X137160000Y-62865000D03*
X137160000Y-60325000D03*
X137160000Y-57785000D03*
X137160000Y-55245000D03*
X137160000Y-52705000D03*
X134620000Y-45085000D03*
X134620000Y-42545000D03*
X132080000Y-45085000D03*
X132080000Y-42545000D03*
X129540000Y-45085000D03*
X129540000Y-42545000D03*
X127000000Y-45085000D03*
X127000000Y-42545000D03*
X124460000Y-45085000D03*
X124460000Y-42545000D03*
X121920000Y-45085000D03*
X121920000Y-42545000D03*
X119380000Y-45085000D03*
X119380000Y-42545000D03*
X116840000Y-45085000D03*
X116840000Y-42545000D03*
X114300000Y-45085000D03*
X114300000Y-42545000D03*
X111760000Y-45085000D03*
X111760000Y-42545000D03*
X109220000Y-45085000D03*
X109220000Y-42545000D03*
X106680000Y-45085000D03*
X106680000Y-42545000D03*
X104140000Y-45085000D03*
X104140000Y-42545000D03*
X101600000Y-45085000D03*
X101600000Y-42545000D03*
X99060000Y-45085000D03*
X99060000Y-42545000D03*
X96520000Y-45085000D03*
X96520000Y-42545000D03*
X88900000Y-88265000D03*
X88900000Y-85725000D03*
X88900000Y-83185000D03*
X88900000Y-80645000D03*
X88900000Y-78105000D03*
X88900000Y-75565000D03*
X88900000Y-73025000D03*
X88900000Y-70485000D03*
X88900000Y-65405000D03*
X88900000Y-62865000D03*
X88900000Y-60325000D03*
X88900000Y-57785000D03*
X88900000Y-55245000D03*
X88900000Y-52705000D03*
X88900000Y-50419000D03*
X88900000Y-47879000D03*
X137160000Y-115189000D03*
X88900000Y-98425000D03*
X88900000Y-95885000D03*
X137160000Y-112649000D03*
X93980000Y-45085000D03*
X93980000Y-42545000D03*
X88900000Y-108585000D03*
D24*
X88900000Y-111125000D03*
D23*
X88900000Y-106045000D03*
X137160000Y-120269000D03*
X137160000Y-117729000D03*
X88900000Y-93345000D03*
D25*
X157735000Y-121285000D03*
X161035000Y-121285000D03*
D22*
X175032500Y-131339300D03*
X176757500Y-131339300D03*
M02*
