G04 #@! TF.GenerationSoftware,KiCad,Pcbnew,6.0.9-8da3e8f707~116~ubuntu20.04.1*
G04 #@! TF.CreationDate,2023-03-15T01:20:07+01:00*
G04 #@! TF.ProjectId,six_to_six_control,7369785f-746f-45f7-9369-785f636f6e74,rev?*
G04 #@! TF.SameCoordinates,Original*
G04 #@! TF.FileFunction,Legend,Bot*
G04 #@! TF.FilePolarity,Positive*
%FSLAX46Y46*%
G04 Gerber Fmt 4.6, Leading zero omitted, Abs format (unit mm)*
G04 Created by KiCad (PCBNEW 6.0.9-8da3e8f707~116~ubuntu20.04.1) date 2023-03-15 01:20:07*
%MOMM*%
%LPD*%
G01*
G04 APERTURE LIST*
G04 Aperture macros list*
%AMRoundRect*
0 Rectangle with rounded corners*
0 $1 Rounding radius*
0 $2 $3 $4 $5 $6 $7 $8 $9 X,Y pos of 4 corners*
0 Add a 4 corners polygon primitive as box body*
4,1,4,$2,$3,$4,$5,$6,$7,$8,$9,$2,$3,0*
0 Add four circle primitives for the rounded corners*
1,1,$1+$1,$2,$3*
1,1,$1+$1,$4,$5*
1,1,$1+$1,$6,$7*
1,1,$1+$1,$8,$9*
0 Add four rect primitives between the rounded corners*
20,1,$1+$1,$2,$3,$4,$5,0*
20,1,$1+$1,$4,$5,$6,$7,0*
20,1,$1+$1,$6,$7,$8,$9,0*
20,1,$1+$1,$8,$9,$2,$3,0*%
G04 Aperture macros list end*
%ADD10C,0.150000*%
%ADD11C,0.127000*%
%ADD12C,0.120000*%
%ADD13C,3.200000*%
%ADD14C,1.358000*%
%ADD15R,1.358000X1.358000*%
%ADD16R,1.530000X1.530000*%
%ADD17C,1.530000*%
%ADD18R,1.700000X1.700000*%
%ADD19O,1.700000X1.700000*%
%ADD20C,5.600000*%
%ADD21R,2.600000X2.600000*%
%ADD22C,2.600000*%
%ADD23RoundRect,0.237500X-0.237500X0.300000X-0.237500X-0.300000X0.237500X-0.300000X0.237500X0.300000X0*%
%ADD24R,1.200000X0.900000*%
G04 APERTURE END LIST*
D10*
X74374285Y-103036666D02*
X73898095Y-103036666D01*
X74469523Y-103322380D02*
X74136190Y-102322380D01*
X73802857Y-103322380D01*
X72945714Y-103322380D02*
X73517142Y-103322380D01*
X73231428Y-103322380D02*
X73231428Y-102322380D01*
X73326666Y-102465238D01*
X73421904Y-102560476D01*
X73517142Y-102608095D01*
X131642142Y-68418333D02*
X131689761Y-68370714D01*
X131737380Y-68227857D01*
X131737380Y-68132619D01*
X131689761Y-67989761D01*
X131594523Y-67894523D01*
X131499285Y-67846904D01*
X131308809Y-67799285D01*
X131165952Y-67799285D01*
X130975476Y-67846904D01*
X130880238Y-67894523D01*
X130785000Y-67989761D01*
X130737380Y-68132619D01*
X130737380Y-68227857D01*
X130785000Y-68370714D01*
X130832619Y-68418333D01*
X131737380Y-69370714D02*
X131737380Y-68799285D01*
X131737380Y-69085000D02*
X130737380Y-69085000D01*
X130880238Y-68989761D01*
X130975476Y-68894523D01*
X131023095Y-68799285D01*
X138787380Y-67846904D02*
X137787380Y-67846904D01*
X137787380Y-68085000D01*
X137835000Y-68227857D01*
X137930238Y-68323095D01*
X138025476Y-68370714D01*
X138215952Y-68418333D01*
X138358809Y-68418333D01*
X138549285Y-68370714D01*
X138644523Y-68323095D01*
X138739761Y-68227857D01*
X138787380Y-68085000D01*
X138787380Y-67846904D01*
X138787380Y-69370714D02*
X138787380Y-68799285D01*
X138787380Y-69085000D02*
X137787380Y-69085000D01*
X137930238Y-68989761D01*
X138025476Y-68894523D01*
X138073095Y-68799285D01*
X120848642Y-68413333D02*
X120896261Y-68365714D01*
X120943880Y-68222857D01*
X120943880Y-68127619D01*
X120896261Y-67984761D01*
X120801023Y-67889523D01*
X120705785Y-67841904D01*
X120515309Y-67794285D01*
X120372452Y-67794285D01*
X120181976Y-67841904D01*
X120086738Y-67889523D01*
X119991500Y-67984761D01*
X119943880Y-68127619D01*
X119943880Y-68222857D01*
X119991500Y-68365714D01*
X120039119Y-68413333D01*
X120039119Y-68794285D02*
X119991500Y-68841904D01*
X119943880Y-68937142D01*
X119943880Y-69175238D01*
X119991500Y-69270476D01*
X120039119Y-69318095D01*
X120134357Y-69365714D01*
X120229595Y-69365714D01*
X120372452Y-69318095D01*
X120943880Y-68746666D01*
X120943880Y-69365714D01*
D11*
X59690000Y-132080000D02*
X134620000Y-132080000D01*
X142240000Y-78740000D02*
X59690000Y-78740000D01*
X59690000Y-78740000D02*
X59690000Y-132080000D01*
D12*
X133225000Y-68438733D02*
X133225000Y-68731267D01*
X132205000Y-68438733D02*
X132205000Y-68731267D01*
X139335000Y-66335000D02*
X141335000Y-66335000D01*
X139335000Y-66335000D02*
X139335000Y-70235000D01*
X141335000Y-66335000D02*
X141335000Y-70235000D01*
X121411500Y-68433733D02*
X121411500Y-68726267D01*
X122431500Y-68433733D02*
X122431500Y-68726267D01*
%LPC*%
D13*
X146050000Y-81280000D03*
X147320000Y-129540000D03*
X95250000Y-96520000D03*
X64770000Y-129540000D03*
X71120000Y-81280000D03*
X95250000Y-124460000D03*
D14*
X97790000Y-81280000D03*
X100330000Y-81280000D03*
X102870000Y-81280000D03*
X105410000Y-81280000D03*
X125730000Y-129540000D03*
X107950000Y-81280000D03*
X110490000Y-81280000D03*
X123190000Y-129540000D03*
X67310000Y-81280000D03*
X64770000Y-81280000D03*
X113030000Y-81280000D03*
X115570000Y-81280000D03*
X119634000Y-81280000D03*
X122174000Y-81280000D03*
X124714000Y-81280000D03*
X127254000Y-81280000D03*
X129794000Y-81280000D03*
X132334000Y-81280000D03*
X92710000Y-81280000D03*
X90170000Y-81280000D03*
X87630000Y-81280000D03*
X85090000Y-81280000D03*
X82550000Y-81280000D03*
X80010000Y-81280000D03*
X77470000Y-81280000D03*
X74930000Y-81280000D03*
X67310000Y-83820000D03*
X64770000Y-83820000D03*
X67310000Y-86360000D03*
X64770000Y-86360000D03*
X67310000Y-88900000D03*
X64770000Y-88900000D03*
X67310000Y-91440000D03*
X64770000Y-91440000D03*
X67310000Y-93980000D03*
X64770000Y-93980000D03*
X67310000Y-96520000D03*
X64770000Y-96520000D03*
X67310000Y-99060000D03*
X64770000Y-99060000D03*
X67310000Y-101600000D03*
X64770000Y-101600000D03*
X67310000Y-104140000D03*
X64770000Y-104140000D03*
X67310000Y-106680000D03*
X64770000Y-106680000D03*
X67310000Y-109220000D03*
X64770000Y-109220000D03*
X67310000Y-111760000D03*
X64770000Y-111760000D03*
X67310000Y-114300000D03*
X64770000Y-114300000D03*
X67310000Y-116840000D03*
X64770000Y-116840000D03*
X67310000Y-119380000D03*
X64770000Y-119380000D03*
X67310000Y-121920000D03*
X64770000Y-121920000D03*
X110490000Y-129540000D03*
X107950000Y-129540000D03*
X105410000Y-129540000D03*
X102870000Y-129540000D03*
X100330000Y-129540000D03*
X97790000Y-129540000D03*
X95250000Y-129540000D03*
X92710000Y-129540000D03*
X87630000Y-129540000D03*
X85090000Y-129540000D03*
X82550000Y-129540000D03*
X80010000Y-129540000D03*
X77470000Y-129540000D03*
X74930000Y-129540000D03*
X72644000Y-129540000D03*
X70104000Y-129540000D03*
X137414000Y-81280000D03*
X120650000Y-129540000D03*
X118110000Y-129540000D03*
X134874000Y-81280000D03*
X67310000Y-124460000D03*
X64770000Y-124460000D03*
X130810000Y-129540000D03*
D15*
X133350000Y-129540000D03*
D14*
X128270000Y-129540000D03*
X142494000Y-81280000D03*
X139954000Y-81280000D03*
X115570000Y-129540000D03*
D16*
X127001500Y-72390000D03*
D17*
X127001500Y-69850000D03*
X127001500Y-67310000D03*
X127001500Y-64770000D03*
X85781500Y-64770000D03*
X85781500Y-67310000D03*
X85781500Y-69850000D03*
X85781500Y-72390000D03*
D18*
X55245000Y-92710000D03*
D19*
X52705000Y-92710000D03*
X55245000Y-90170000D03*
X52705000Y-90170000D03*
X55245000Y-87630000D03*
X52705000Y-87630000D03*
X55245000Y-85090000D03*
X52705000Y-85090000D03*
D18*
X55245000Y-120650000D03*
D19*
X52705000Y-120650000D03*
X55245000Y-118110000D03*
X52705000Y-118110000D03*
X55245000Y-115570000D03*
X52705000Y-115570000D03*
X55245000Y-113030000D03*
X52705000Y-113030000D03*
D18*
X66040000Y-71120000D03*
D19*
X63500000Y-71120000D03*
X66040000Y-68580000D03*
X63500000Y-68580000D03*
X66040000Y-66040000D03*
X63500000Y-66040000D03*
X66040000Y-63500000D03*
X63500000Y-63500000D03*
D20*
X140970000Y-129540000D03*
X54610000Y-129540000D03*
X146050000Y-63500000D03*
D19*
X74935000Y-63490000D03*
X77475000Y-63490000D03*
X74935000Y-66030000D03*
X77475000Y-66030000D03*
X74935000Y-68570000D03*
X77475000Y-68570000D03*
X74935000Y-71110000D03*
D18*
X77475000Y-71110000D03*
D21*
X136830000Y-71125000D03*
D22*
X136830000Y-66045000D03*
D20*
X54610000Y-62230000D03*
D18*
X55245000Y-106680000D03*
D19*
X52705000Y-106680000D03*
X55245000Y-104140000D03*
X52705000Y-104140000D03*
X55245000Y-101600000D03*
X52705000Y-101600000D03*
X55245000Y-99060000D03*
X52705000Y-99060000D03*
D18*
X55245000Y-78740000D03*
D19*
X52705000Y-78740000D03*
X55245000Y-76200000D03*
X52705000Y-76200000D03*
X55245000Y-73660000D03*
X52705000Y-73660000D03*
X55245000Y-71120000D03*
X52705000Y-71120000D03*
D23*
X132715000Y-67722500D03*
X132715000Y-69447500D03*
D24*
X140335000Y-66935000D03*
X140335000Y-70235000D03*
D23*
X121921500Y-67717500D03*
X121921500Y-69442500D03*
M02*
