G04 #@! TF.GenerationSoftware,KiCad,Pcbnew,6.0.9-8da3e8f707~116~ubuntu20.04.1*
G04 #@! TF.CreationDate,2023-03-15T01:20:07+01:00*
G04 #@! TF.ProjectId,six_to_six_control,7369785f-746f-45f7-9369-785f636f6e74,rev?*
G04 #@! TF.SameCoordinates,Original*
G04 #@! TF.FileFunction,Soldermask,Top*
G04 #@! TF.FilePolarity,Negative*
%FSLAX46Y46*%
G04 Gerber Fmt 4.6, Leading zero omitted, Abs format (unit mm)*
G04 Created by KiCad (PCBNEW 6.0.9-8da3e8f707~116~ubuntu20.04.1) date 2023-03-15 01:20:07*
%MOMM*%
%LPD*%
G01*
G04 APERTURE LIST*
%ADD10C,3.200000*%
%ADD11C,1.358000*%
%ADD12R,1.358000X1.358000*%
%ADD13R,1.530000X1.530000*%
%ADD14C,1.530000*%
%ADD15R,1.700000X1.700000*%
%ADD16O,1.700000X1.700000*%
%ADD17C,5.600000*%
%ADD18R,2.600000X2.600000*%
%ADD19C,2.600000*%
G04 APERTURE END LIST*
D10*
X146050000Y-81280000D03*
X147320000Y-129540000D03*
X95250000Y-96520000D03*
X64770000Y-129540000D03*
X71120000Y-81280000D03*
X95250000Y-124460000D03*
D11*
X97790000Y-81280000D03*
X100330000Y-81280000D03*
X102870000Y-81280000D03*
X105410000Y-81280000D03*
X125730000Y-129540000D03*
X107950000Y-81280000D03*
X110490000Y-81280000D03*
X123190000Y-129540000D03*
X67310000Y-81280000D03*
X64770000Y-81280000D03*
X113030000Y-81280000D03*
X115570000Y-81280000D03*
X119634000Y-81280000D03*
X122174000Y-81280000D03*
X124714000Y-81280000D03*
X127254000Y-81280000D03*
X129794000Y-81280000D03*
X132334000Y-81280000D03*
X92710000Y-81280000D03*
X90170000Y-81280000D03*
X87630000Y-81280000D03*
X85090000Y-81280000D03*
X82550000Y-81280000D03*
X80010000Y-81280000D03*
X77470000Y-81280000D03*
X74930000Y-81280000D03*
X67310000Y-83820000D03*
X64770000Y-83820000D03*
X67310000Y-86360000D03*
X64770000Y-86360000D03*
X67310000Y-88900000D03*
X64770000Y-88900000D03*
X67310000Y-91440000D03*
X64770000Y-91440000D03*
X67310000Y-93980000D03*
X64770000Y-93980000D03*
X67310000Y-96520000D03*
X64770000Y-96520000D03*
X67310000Y-99060000D03*
X64770000Y-99060000D03*
X67310000Y-101600000D03*
X64770000Y-101600000D03*
X67310000Y-104140000D03*
X64770000Y-104140000D03*
X67310000Y-106680000D03*
X64770000Y-106680000D03*
X67310000Y-109220000D03*
X64770000Y-109220000D03*
X67310000Y-111760000D03*
X64770000Y-111760000D03*
X67310000Y-114300000D03*
X64770000Y-114300000D03*
X67310000Y-116840000D03*
X64770000Y-116840000D03*
X67310000Y-119380000D03*
X64770000Y-119380000D03*
X67310000Y-121920000D03*
X64770000Y-121920000D03*
X110490000Y-129540000D03*
X107950000Y-129540000D03*
X105410000Y-129540000D03*
X102870000Y-129540000D03*
X100330000Y-129540000D03*
X97790000Y-129540000D03*
X95250000Y-129540000D03*
X92710000Y-129540000D03*
X87630000Y-129540000D03*
X85090000Y-129540000D03*
X82550000Y-129540000D03*
X80010000Y-129540000D03*
X77470000Y-129540000D03*
X74930000Y-129540000D03*
X72644000Y-129540000D03*
X70104000Y-129540000D03*
X137414000Y-81280000D03*
X120650000Y-129540000D03*
X118110000Y-129540000D03*
X134874000Y-81280000D03*
X67310000Y-124460000D03*
X64770000Y-124460000D03*
X130810000Y-129540000D03*
D12*
X133350000Y-129540000D03*
D11*
X128270000Y-129540000D03*
X142494000Y-81280000D03*
X139954000Y-81280000D03*
X115570000Y-129540000D03*
D13*
X127001500Y-72390000D03*
D14*
X127001500Y-69850000D03*
X127001500Y-67310000D03*
X127001500Y-64770000D03*
X85781500Y-64770000D03*
X85781500Y-67310000D03*
X85781500Y-69850000D03*
X85781500Y-72390000D03*
D15*
X55245000Y-92710000D03*
D16*
X52705000Y-92710000D03*
X55245000Y-90170000D03*
X52705000Y-90170000D03*
X55245000Y-87630000D03*
X52705000Y-87630000D03*
X55245000Y-85090000D03*
X52705000Y-85090000D03*
D15*
X55245000Y-120650000D03*
D16*
X52705000Y-120650000D03*
X55245000Y-118110000D03*
X52705000Y-118110000D03*
X55245000Y-115570000D03*
X52705000Y-115570000D03*
X55245000Y-113030000D03*
X52705000Y-113030000D03*
D15*
X66040000Y-71120000D03*
D16*
X63500000Y-71120000D03*
X66040000Y-68580000D03*
X63500000Y-68580000D03*
X66040000Y-66040000D03*
X63500000Y-66040000D03*
X66040000Y-63500000D03*
X63500000Y-63500000D03*
D17*
X140970000Y-129540000D03*
X54610000Y-129540000D03*
X146050000Y-63500000D03*
D16*
X74935000Y-63490000D03*
X77475000Y-63490000D03*
X74935000Y-66030000D03*
X77475000Y-66030000D03*
X74935000Y-68570000D03*
X77475000Y-68570000D03*
X74935000Y-71110000D03*
D15*
X77475000Y-71110000D03*
D18*
X136830000Y-71125000D03*
D19*
X136830000Y-66045000D03*
D17*
X54610000Y-62230000D03*
D15*
X55245000Y-106680000D03*
D16*
X52705000Y-106680000D03*
X55245000Y-104140000D03*
X52705000Y-104140000D03*
X55245000Y-101600000D03*
X52705000Y-101600000D03*
X55245000Y-99060000D03*
X52705000Y-99060000D03*
D15*
X55245000Y-78740000D03*
D16*
X52705000Y-78740000D03*
X55245000Y-76200000D03*
X52705000Y-76200000D03*
X55245000Y-73660000D03*
X52705000Y-73660000D03*
X55245000Y-71120000D03*
X52705000Y-71120000D03*
M02*
