M48
; DRILL file {KiCad 6.0.9-8da3e8f707~116~ubuntu20.04.1} date sre 15 mar 2023 01:20:15
; FORMAT={-:-/ absolute / metric / decimal}
; #@! TF.CreationDate,2023-03-15T01:20:15+01:00
; #@! TF.GenerationSoftware,Kicad,Pcbnew,6.0.9-8da3e8f707~116~ubuntu20.04.1
; #@! TF.FileFunction,Plated,1,2,PTH
FMAT,2
METRIC
; #@! TA.AperFunction,Plated,PTH,ViaDrill
T1C0.400
; #@! TA.AperFunction,Plated,PTH,ComponentDrill
T2C0.850
; #@! TA.AperFunction,Plated,PTH,ComponentDrill
T3C1.000
; #@! TA.AperFunction,Plated,PTH,ComponentDrill
T4C1.020
; #@! TA.AperFunction,Plated,PTH,ComponentDrill
T5C1.300
; #@! TA.AperFunction,Plated,PTH,ComponentDrill
T6C3.200
%
G90
G05
T1
X54.303Y-81.103
X71.12Y-76.2
X99.695Y-67.945
T2
X64.77Y-81.28
X64.77Y-83.82
X64.77Y-86.36
X64.77Y-88.9
X64.77Y-91.44
X64.77Y-93.98
X64.77Y-96.52
X64.77Y-99.06
X64.77Y-101.6
X64.77Y-104.14
X64.77Y-106.68
X64.77Y-109.22
X64.77Y-111.76
X64.77Y-114.3
X64.77Y-116.84
X64.77Y-119.38
X64.77Y-121.92
X64.77Y-124.46
X67.31Y-81.28
X67.31Y-83.82
X67.31Y-86.36
X67.31Y-88.9
X67.31Y-91.44
X67.31Y-93.98
X67.31Y-96.52
X67.31Y-99.06
X67.31Y-101.6
X67.31Y-104.14
X67.31Y-106.68
X67.31Y-109.22
X67.31Y-111.76
X67.31Y-114.3
X67.31Y-116.84
X67.31Y-119.38
X67.31Y-121.92
X67.31Y-124.46
X70.104Y-129.54
X72.644Y-129.54
X74.93Y-81.28
X74.93Y-129.54
X77.47Y-81.28
X77.47Y-129.54
X80.01Y-81.28
X80.01Y-129.54
X82.55Y-81.28
X82.55Y-129.54
X85.09Y-81.28
X85.09Y-129.54
X87.63Y-81.28
X87.63Y-129.54
X90.17Y-81.28
X92.71Y-81.28
X92.71Y-129.54
X95.25Y-129.54
X97.79Y-81.28
X97.79Y-129.54
X100.33Y-81.28
X100.33Y-129.54
X102.87Y-81.28
X102.87Y-129.54
X105.41Y-81.28
X105.41Y-129.54
X107.95Y-81.28
X107.95Y-129.54
X110.49Y-81.28
X110.49Y-129.54
X113.03Y-81.28
X115.57Y-81.28
X115.57Y-129.54
X118.11Y-129.54
X119.634Y-81.28
X120.65Y-129.54
X122.174Y-81.28
X123.19Y-129.54
X124.714Y-81.28
X125.73Y-129.54
X127.254Y-81.28
X128.27Y-129.54
X129.794Y-81.28
X130.81Y-129.54
X132.334Y-81.28
X133.35Y-129.54
X134.874Y-81.28
X137.414Y-81.28
X139.954Y-81.28
X142.494Y-81.28
T3
X52.705Y-71.12
X52.705Y-73.66
X52.705Y-76.2
X52.705Y-78.74
X52.705Y-85.09
X52.705Y-87.63
X52.705Y-90.17
X52.705Y-92.71
X52.705Y-99.06
X52.705Y-101.6
X52.705Y-104.14
X52.705Y-106.68
X52.705Y-113.03
X52.705Y-115.57
X52.705Y-118.11
X52.705Y-120.65
X55.245Y-71.12
X55.245Y-73.66
X55.245Y-76.2
X55.245Y-78.74
X55.245Y-85.09
X55.245Y-87.63
X55.245Y-90.17
X55.245Y-92.71
X55.245Y-99.06
X55.245Y-101.6
X55.245Y-104.14
X55.245Y-106.68
X55.245Y-113.03
X55.245Y-115.57
X55.245Y-118.11
X55.245Y-120.65
X63.5Y-63.5
X63.5Y-66.04
X63.5Y-68.58
X63.5Y-71.12
X66.04Y-63.5
X66.04Y-66.04
X66.04Y-68.58
X66.04Y-71.12
X74.935Y-63.49
X74.935Y-66.03
X74.935Y-68.57
X74.935Y-71.11
X77.475Y-63.49
X77.475Y-66.03
X77.475Y-68.57
X77.475Y-71.11
T4
X85.781Y-64.77
X85.781Y-67.31
X85.781Y-69.85
X85.781Y-72.39
X127.001Y-64.77
X127.001Y-67.31
X127.001Y-69.85
X127.001Y-72.39
T5
X136.83Y-66.045
X136.83Y-71.125
T6
X54.61Y-62.23
X54.61Y-129.54
X140.97Y-129.54
X146.05Y-63.5
T0
M30
