M48
; DRILL file {KiCad 6.0.9-8da3e8f707~116~ubuntu20.04.1} date tor 28 mar 2023 15:30:46
; FORMAT={-:-/ absolute / metric / decimal}
; #@! TF.CreationDate,2023-03-28T15:30:46+02:00
; #@! TF.GenerationSoftware,Kicad,Pcbnew,6.0.9-8da3e8f707~116~ubuntu20.04.1
; #@! TF.FileFunction,Plated,1,2,PTH
FMAT,2
METRIC
; #@! TA.AperFunction,Plated,PTH,ViaDrill
T1C0.400
; #@! TA.AperFunction,Plated,PTH,ComponentDrill
T2C0.850
; #@! TA.AperFunction,Plated,PTH,ComponentDrill
T3C1.000
; #@! TA.AperFunction,Plated,PTH,ComponentDrill
T4C1.020
; #@! TA.AperFunction,Plated,PTH,ComponentDrill
T5C3.200
%
G90
G05
T1
X155.225Y-68.287
X158.455Y-63.897
T2
X88.9Y-47.879
X88.9Y-50.419
X88.9Y-52.705
X88.9Y-55.245
X88.9Y-57.785
X88.9Y-60.325
X88.9Y-62.865
X88.9Y-65.405
X88.9Y-70.485
X88.9Y-73.025
X88.9Y-75.565
X88.9Y-78.105
X88.9Y-80.645
X88.9Y-83.185
X88.9Y-85.725
X88.9Y-88.265
X88.9Y-93.345
X88.9Y-95.885
X88.9Y-98.425
X88.9Y-100.965
X88.9Y-103.505
X88.9Y-106.045
X88.9Y-108.585
X88.9Y-111.125
X93.98Y-42.545
X93.98Y-45.085
X96.52Y-42.545
X96.52Y-45.085
X99.06Y-42.545
X99.06Y-45.085
X101.6Y-42.545
X101.6Y-45.085
X104.14Y-42.545
X104.14Y-45.085
X106.68Y-42.545
X106.68Y-45.085
X109.22Y-42.545
X109.22Y-45.085
X111.76Y-42.545
X111.76Y-45.085
X114.3Y-42.545
X114.3Y-45.085
X116.84Y-42.545
X116.84Y-45.085
X119.38Y-42.545
X119.38Y-45.085
X121.92Y-42.545
X121.92Y-45.085
X124.46Y-42.545
X124.46Y-45.085
X127.0Y-42.545
X127.0Y-45.085
X129.54Y-42.545
X129.54Y-45.085
X132.08Y-42.545
X132.08Y-45.085
X134.62Y-42.545
X134.62Y-45.085
X137.16Y-42.545
X137.16Y-45.085
X137.16Y-52.705
X137.16Y-55.245
X137.16Y-57.785
X137.16Y-60.325
X137.16Y-62.865
X137.16Y-65.405
X137.16Y-67.945
X137.16Y-70.485
X137.16Y-75.565
X137.16Y-78.105
X137.16Y-80.645
X137.16Y-83.185
X137.16Y-85.725
X137.16Y-88.265
X137.16Y-90.805
X137.16Y-93.345
X137.16Y-97.409
X137.16Y-99.949
X137.16Y-102.489
X137.16Y-105.029
X137.16Y-107.569
X137.16Y-110.109
X137.16Y-112.649
X137.16Y-115.189
X137.16Y-117.729
X137.16Y-120.269
T3
X148.59Y-53.34
X148.59Y-55.88
X148.59Y-58.42
X148.59Y-60.96
X151.13Y-53.34
X151.13Y-55.88
X151.13Y-58.42
X151.13Y-60.96
X161.29Y-53.34
X161.29Y-55.88
X161.29Y-58.42
X161.29Y-60.96
X162.745Y-126.09
X163.83Y-53.34
X163.83Y-55.88
X163.83Y-58.42
X163.83Y-60.96
X164.13Y-128.93
X165.515Y-126.09
X166.9Y-128.93
X168.285Y-126.09
X169.67Y-128.93
X171.055Y-126.09
X172.44Y-128.93
X173.825Y-126.09
X173.99Y-53.35
X173.99Y-55.89
X173.99Y-58.43
X173.99Y-60.97
X176.53Y-53.35
X176.53Y-55.89
X176.53Y-58.43
X176.53Y-60.97
X186.69Y-53.34
X186.69Y-55.88
X186.69Y-58.42
X186.69Y-60.96
X189.23Y-53.34
X189.23Y-55.88
X189.23Y-58.42
X189.23Y-60.96
X199.39Y-53.34
X199.39Y-55.88
X199.39Y-58.42
X199.39Y-60.96
X199.39Y-74.295
X199.39Y-76.835
X201.93Y-53.34
X201.93Y-55.88
X201.93Y-58.42
X201.93Y-60.96
X201.93Y-74.295
X201.93Y-76.835
X204.47Y-74.295
X204.47Y-76.835
X207.01Y-74.295
X207.01Y-76.835
X209.55Y-74.295
X209.55Y-76.835
X212.09Y-53.34
X212.09Y-55.88
X212.09Y-58.42
X212.09Y-60.96
X214.63Y-53.34
X214.63Y-55.88
X214.63Y-58.42
X214.63Y-60.96
T4
X162.56Y-75.621
X162.56Y-116.841
X165.1Y-75.621
X165.1Y-116.841
X167.64Y-75.621
X167.64Y-116.841
X170.18Y-75.621
X170.18Y-116.841
X199.39Y-84.455
X199.39Y-86.995
X201.93Y-84.455
X201.93Y-86.995
X204.47Y-84.455
X204.47Y-86.995
X207.01Y-84.455
X207.01Y-86.995
X209.55Y-84.455
X209.55Y-86.995
T5
X81.28Y-45.085
X81.28Y-128.27
X146.05Y-128.27
X155.785Y-127.51
X180.785Y-127.51
X215.9Y-45.085
T0
M30
