%TF.GenerationSoftware,KiCad,Pcbnew,6.0.9-8da3e8f707~116~ubuntu20.04.1*%
%TF.CreationDate,2023-03-28T16:44:44+02:00*%
%TF.ProjectId,six_to_six_control,7369785f-746f-45f7-9369-785f636f6e74,rev?*%
%TF.SameCoordinates,Original*%
%TF.FileFunction,Drillmap*%
%TF.FilePolarity,Positive*%
%FSLAX45Y45*%
G04 Gerber Fmt 4.5, Leading zero omitted, Abs format (unit mm)*
G04 Created by KiCad (PCBNEW 6.0.9-8da3e8f707~116~ubuntu20.04.1) date 2023-03-28 16:44:44*
%MOMM*%
%LPD*%
G01*
G04 APERTURE LIST*
%ADD10C,0.100000*%
%ADD11C,0.200000*%
%ADD12C,0.320000*%
G04 APERTURE END LIST*
D10*
X7683500Y-3937000D02*
G75*
G03*
X7620000Y-4000500I0J-63500D01*
G01*
X22225000Y-4000500D02*
G75*
G03*
X22161500Y-3937000I-63500J0D01*
G01*
X22225000Y-13843000D02*
X22225000Y-4000500D01*
X7620000Y-4000500D02*
X7620000Y-13843000D01*
X7683500Y-13906500D02*
X22161500Y-13906500D01*
X22161500Y-13906500D02*
G75*
G03*
X22225000Y-13843000I0J63500D01*
G01*
X22161500Y-3937000D02*
X7683500Y-3937000D01*
X7620000Y-13843000D02*
G75*
G03*
X7683500Y-13906500I63500J0D01*
G01*
D11*
D12*
X8730000Y-4094500D02*
X9050000Y-4414500D01*
X9050000Y-4094500D02*
X8730000Y-4414500D01*
X8730000Y-12349500D02*
X9050000Y-12669500D01*
X9050000Y-12349500D02*
X8730000Y-12669500D01*
X9238000Y-7142500D02*
X9558000Y-7462500D01*
X9558000Y-7142500D02*
X9238000Y-7462500D01*
X12032000Y-7142500D02*
X12352000Y-7462500D01*
X12352000Y-7142500D02*
X12032000Y-7462500D01*
X13556000Y-12222500D02*
X13876000Y-12542500D01*
X13876000Y-12222500D02*
X13556000Y-12542500D01*
X18864600Y-8463300D02*
X19184600Y-8783300D01*
X19184600Y-8463300D02*
X18864600Y-8783300D01*
X18864600Y-13467100D02*
X19184600Y-13787100D01*
X19184600Y-13467100D02*
X18864600Y-13787100D01*
X21709400Y-8463300D02*
X22029400Y-8783300D01*
X22029400Y-8463300D02*
X21709400Y-8783300D01*
X21709400Y-13467100D02*
X22029400Y-13787100D01*
X22029400Y-13467100D02*
X21709400Y-13787100D01*
D11*
X7872619Y-14221976D02*
X7872619Y-14021976D01*
X7920238Y-14021976D01*
X7948809Y-14031500D01*
X7967857Y-14050548D01*
X7977381Y-14069595D01*
X7986905Y-14107690D01*
X7986905Y-14136262D01*
X7977381Y-14174357D01*
X7967857Y-14193405D01*
X7948809Y-14212452D01*
X7920238Y-14221976D01*
X7872619Y-14221976D01*
X8072619Y-14221976D02*
X8072619Y-14088643D01*
X8072619Y-14126738D02*
X8082143Y-14107690D01*
X8091667Y-14098167D01*
X8110714Y-14088643D01*
X8129762Y-14088643D01*
X8196428Y-14221976D02*
X8196428Y-14088643D01*
X8196428Y-14021976D02*
X8186905Y-14031500D01*
X8196428Y-14041024D01*
X8205952Y-14031500D01*
X8196428Y-14021976D01*
X8196428Y-14041024D01*
X8320238Y-14221976D02*
X8301190Y-14212452D01*
X8291667Y-14193405D01*
X8291667Y-14021976D01*
X8425000Y-14221976D02*
X8405952Y-14212452D01*
X8396429Y-14193405D01*
X8396429Y-14021976D01*
X8653571Y-14221976D02*
X8653571Y-14021976D01*
X8720238Y-14164833D01*
X8786905Y-14021976D01*
X8786905Y-14221976D01*
X8967857Y-14221976D02*
X8967857Y-14117214D01*
X8958333Y-14098167D01*
X8939286Y-14088643D01*
X8901190Y-14088643D01*
X8882143Y-14098167D01*
X8967857Y-14212452D02*
X8948810Y-14221976D01*
X8901190Y-14221976D01*
X8882143Y-14212452D01*
X8872619Y-14193405D01*
X8872619Y-14174357D01*
X8882143Y-14155309D01*
X8901190Y-14145786D01*
X8948810Y-14145786D01*
X8967857Y-14136262D01*
X9063095Y-14088643D02*
X9063095Y-14288643D01*
X9063095Y-14098167D02*
X9082143Y-14088643D01*
X9120238Y-14088643D01*
X9139286Y-14098167D01*
X9148810Y-14107690D01*
X9158333Y-14126738D01*
X9158333Y-14183881D01*
X9148810Y-14202928D01*
X9139286Y-14212452D01*
X9120238Y-14221976D01*
X9082143Y-14221976D01*
X9063095Y-14212452D01*
X9244048Y-14202928D02*
X9253571Y-14212452D01*
X9244048Y-14221976D01*
X9234524Y-14212452D01*
X9244048Y-14202928D01*
X9244048Y-14221976D01*
X9244048Y-14098167D02*
X9253571Y-14107690D01*
X9244048Y-14117214D01*
X9234524Y-14107690D01*
X9244048Y-14098167D01*
X9244048Y-14117214D01*
X7415000Y-14451500D02*
X7615000Y-14651500D01*
X7615000Y-14451500D02*
X7415000Y-14651500D01*
X7853571Y-14441976D02*
X7977381Y-14441976D01*
X7910714Y-14518167D01*
X7939286Y-14518167D01*
X7958333Y-14527690D01*
X7967857Y-14537214D01*
X7977381Y-14556262D01*
X7977381Y-14603881D01*
X7967857Y-14622928D01*
X7958333Y-14632452D01*
X7939286Y-14641976D01*
X7882143Y-14641976D01*
X7863095Y-14632452D01*
X7853571Y-14622928D01*
X8063095Y-14622928D02*
X8072619Y-14632452D01*
X8063095Y-14641976D01*
X8053571Y-14632452D01*
X8063095Y-14622928D01*
X8063095Y-14641976D01*
X8148809Y-14461024D02*
X8158333Y-14451500D01*
X8177381Y-14441976D01*
X8225000Y-14441976D01*
X8244048Y-14451500D01*
X8253571Y-14461024D01*
X8263095Y-14480071D01*
X8263095Y-14499119D01*
X8253571Y-14527690D01*
X8139286Y-14641976D01*
X8263095Y-14641976D01*
X8386905Y-14441976D02*
X8405952Y-14441976D01*
X8425000Y-14451500D01*
X8434524Y-14461024D01*
X8444048Y-14480071D01*
X8453571Y-14518167D01*
X8453571Y-14565786D01*
X8444048Y-14603881D01*
X8434524Y-14622928D01*
X8425000Y-14632452D01*
X8405952Y-14641976D01*
X8386905Y-14641976D01*
X8367857Y-14632452D01*
X8358333Y-14622928D01*
X8348809Y-14603881D01*
X8339286Y-14565786D01*
X8339286Y-14518167D01*
X8348809Y-14480071D01*
X8358333Y-14461024D01*
X8367857Y-14451500D01*
X8386905Y-14441976D01*
X8577381Y-14441976D02*
X8596429Y-14441976D01*
X8615476Y-14451500D01*
X8625000Y-14461024D01*
X8634524Y-14480071D01*
X8644048Y-14518167D01*
X8644048Y-14565786D01*
X8634524Y-14603881D01*
X8625000Y-14622928D01*
X8615476Y-14632452D01*
X8596429Y-14641976D01*
X8577381Y-14641976D01*
X8558333Y-14632452D01*
X8548810Y-14622928D01*
X8539286Y-14603881D01*
X8529762Y-14565786D01*
X8529762Y-14518167D01*
X8539286Y-14480071D01*
X8548810Y-14461024D01*
X8558333Y-14451500D01*
X8577381Y-14441976D01*
X8729762Y-14641976D02*
X8729762Y-14508643D01*
X8729762Y-14527690D02*
X8739286Y-14518167D01*
X8758333Y-14508643D01*
X8786905Y-14508643D01*
X8805952Y-14518167D01*
X8815476Y-14537214D01*
X8815476Y-14641976D01*
X8815476Y-14537214D02*
X8825000Y-14518167D01*
X8844048Y-14508643D01*
X8872619Y-14508643D01*
X8891667Y-14518167D01*
X8901190Y-14537214D01*
X8901190Y-14641976D01*
X8996429Y-14641976D02*
X8996429Y-14508643D01*
X8996429Y-14527690D02*
X9005952Y-14518167D01*
X9025000Y-14508643D01*
X9053571Y-14508643D01*
X9072619Y-14518167D01*
X9082143Y-14537214D01*
X9082143Y-14641976D01*
X9082143Y-14537214D02*
X9091667Y-14518167D01*
X9110714Y-14508643D01*
X9139286Y-14508643D01*
X9158333Y-14518167D01*
X9167857Y-14537214D01*
X9167857Y-14641976D01*
X9558333Y-14432452D02*
X9386905Y-14689595D01*
X9815476Y-14441976D02*
X9834524Y-14441976D01*
X9853571Y-14451500D01*
X9863095Y-14461024D01*
X9872619Y-14480071D01*
X9882143Y-14518167D01*
X9882143Y-14565786D01*
X9872619Y-14603881D01*
X9863095Y-14622928D01*
X9853571Y-14632452D01*
X9834524Y-14641976D01*
X9815476Y-14641976D01*
X9796429Y-14632452D01*
X9786905Y-14622928D01*
X9777381Y-14603881D01*
X9767857Y-14565786D01*
X9767857Y-14518167D01*
X9777381Y-14480071D01*
X9786905Y-14461024D01*
X9796429Y-14451500D01*
X9815476Y-14441976D01*
X9967857Y-14622928D02*
X9977381Y-14632452D01*
X9967857Y-14641976D01*
X9958333Y-14632452D01*
X9967857Y-14622928D01*
X9967857Y-14641976D01*
X10167857Y-14641976D02*
X10053571Y-14641976D01*
X10110714Y-14641976D02*
X10110714Y-14441976D01*
X10091667Y-14470548D01*
X10072619Y-14489595D01*
X10053571Y-14499119D01*
X10244048Y-14461024D02*
X10253571Y-14451500D01*
X10272619Y-14441976D01*
X10320238Y-14441976D01*
X10339286Y-14451500D01*
X10348810Y-14461024D01*
X10358333Y-14480071D01*
X10358333Y-14499119D01*
X10348810Y-14527690D01*
X10234524Y-14641976D01*
X10358333Y-14641976D01*
X10529762Y-14441976D02*
X10491667Y-14441976D01*
X10472619Y-14451500D01*
X10463095Y-14461024D01*
X10444048Y-14489595D01*
X10434524Y-14527690D01*
X10434524Y-14603881D01*
X10444048Y-14622928D01*
X10453571Y-14632452D01*
X10472619Y-14641976D01*
X10510714Y-14641976D01*
X10529762Y-14632452D01*
X10539286Y-14622928D01*
X10548810Y-14603881D01*
X10548810Y-14556262D01*
X10539286Y-14537214D01*
X10529762Y-14527690D01*
X10510714Y-14518167D01*
X10472619Y-14518167D01*
X10453571Y-14527690D01*
X10444048Y-14537214D01*
X10434524Y-14556262D01*
X10672619Y-14441976D02*
X10691667Y-14441976D01*
X10710714Y-14451500D01*
X10720238Y-14461024D01*
X10729762Y-14480071D01*
X10739286Y-14518167D01*
X10739286Y-14565786D01*
X10729762Y-14603881D01*
X10720238Y-14622928D01*
X10710714Y-14632452D01*
X10691667Y-14641976D01*
X10672619Y-14641976D01*
X10653571Y-14632452D01*
X10644048Y-14622928D01*
X10634524Y-14603881D01*
X10625000Y-14565786D01*
X10625000Y-14518167D01*
X10634524Y-14480071D01*
X10644048Y-14461024D01*
X10653571Y-14451500D01*
X10672619Y-14441976D01*
X10815476Y-14441976D02*
X10815476Y-14480071D01*
X10891667Y-14441976D02*
X10891667Y-14480071D01*
X11186905Y-14718167D02*
X11177381Y-14708643D01*
X11158333Y-14680071D01*
X11148810Y-14661024D01*
X11139286Y-14632452D01*
X11129762Y-14584833D01*
X11129762Y-14546738D01*
X11139286Y-14499119D01*
X11148810Y-14470548D01*
X11158333Y-14451500D01*
X11177381Y-14422928D01*
X11186905Y-14413405D01*
X11272619Y-14641976D02*
X11310714Y-14641976D01*
X11329762Y-14632452D01*
X11339286Y-14622928D01*
X11358333Y-14594357D01*
X11367857Y-14556262D01*
X11367857Y-14480071D01*
X11358333Y-14461024D01*
X11348809Y-14451500D01*
X11329762Y-14441976D01*
X11291667Y-14441976D01*
X11272619Y-14451500D01*
X11263095Y-14461024D01*
X11253571Y-14480071D01*
X11253571Y-14527690D01*
X11263095Y-14546738D01*
X11272619Y-14556262D01*
X11291667Y-14565786D01*
X11329762Y-14565786D01*
X11348809Y-14556262D01*
X11358333Y-14546738D01*
X11367857Y-14527690D01*
X11605952Y-14641976D02*
X11605952Y-14441976D01*
X11691667Y-14641976D02*
X11691667Y-14537214D01*
X11682143Y-14518167D01*
X11663095Y-14508643D01*
X11634524Y-14508643D01*
X11615476Y-14518167D01*
X11605952Y-14527690D01*
X11815476Y-14641976D02*
X11796428Y-14632452D01*
X11786905Y-14622928D01*
X11777381Y-14603881D01*
X11777381Y-14546738D01*
X11786905Y-14527690D01*
X11796428Y-14518167D01*
X11815476Y-14508643D01*
X11844048Y-14508643D01*
X11863095Y-14518167D01*
X11872619Y-14527690D01*
X11882143Y-14546738D01*
X11882143Y-14603881D01*
X11872619Y-14622928D01*
X11863095Y-14632452D01*
X11844048Y-14641976D01*
X11815476Y-14641976D01*
X11996428Y-14641976D02*
X11977381Y-14632452D01*
X11967857Y-14613405D01*
X11967857Y-14441976D01*
X12148809Y-14632452D02*
X12129762Y-14641976D01*
X12091667Y-14641976D01*
X12072619Y-14632452D01*
X12063095Y-14613405D01*
X12063095Y-14537214D01*
X12072619Y-14518167D01*
X12091667Y-14508643D01*
X12129762Y-14508643D01*
X12148809Y-14518167D01*
X12158333Y-14537214D01*
X12158333Y-14556262D01*
X12063095Y-14575309D01*
X12234524Y-14632452D02*
X12253571Y-14641976D01*
X12291667Y-14641976D01*
X12310714Y-14632452D01*
X12320238Y-14613405D01*
X12320238Y-14603881D01*
X12310714Y-14584833D01*
X12291667Y-14575309D01*
X12263095Y-14575309D01*
X12244048Y-14565786D01*
X12234524Y-14546738D01*
X12234524Y-14537214D01*
X12244048Y-14518167D01*
X12263095Y-14508643D01*
X12291667Y-14508643D01*
X12310714Y-14518167D01*
X12386905Y-14718167D02*
X12396428Y-14708643D01*
X12415476Y-14680071D01*
X12425000Y-14661024D01*
X12434524Y-14632452D01*
X12444048Y-14584833D01*
X12444048Y-14546738D01*
X12434524Y-14499119D01*
X12425000Y-14470548D01*
X12415476Y-14451500D01*
X12396428Y-14422928D01*
X12386905Y-14413405D01*
X12748809Y-14718167D02*
X12739286Y-14708643D01*
X12720238Y-14680071D01*
X12710714Y-14661024D01*
X12701190Y-14632452D01*
X12691667Y-14584833D01*
X12691667Y-14546738D01*
X12701190Y-14499119D01*
X12710714Y-14470548D01*
X12720238Y-14451500D01*
X12739286Y-14422928D01*
X12748809Y-14413405D01*
X12825000Y-14508643D02*
X12825000Y-14641976D01*
X12825000Y-14527690D02*
X12834524Y-14518167D01*
X12853571Y-14508643D01*
X12882143Y-14508643D01*
X12901190Y-14518167D01*
X12910714Y-14537214D01*
X12910714Y-14641976D01*
X13034524Y-14641976D02*
X13015476Y-14632452D01*
X13005952Y-14622928D01*
X12996428Y-14603881D01*
X12996428Y-14546738D01*
X13005952Y-14527690D01*
X13015476Y-14518167D01*
X13034524Y-14508643D01*
X13063095Y-14508643D01*
X13082143Y-14518167D01*
X13091667Y-14527690D01*
X13101190Y-14546738D01*
X13101190Y-14603881D01*
X13091667Y-14622928D01*
X13082143Y-14632452D01*
X13063095Y-14641976D01*
X13034524Y-14641976D01*
X13158333Y-14508643D02*
X13234524Y-14508643D01*
X13186905Y-14441976D02*
X13186905Y-14613405D01*
X13196428Y-14632452D01*
X13215476Y-14641976D01*
X13234524Y-14641976D01*
X13453571Y-14508643D02*
X13453571Y-14708643D01*
X13453571Y-14518167D02*
X13472619Y-14508643D01*
X13510714Y-14508643D01*
X13529762Y-14518167D01*
X13539286Y-14527690D01*
X13548809Y-14546738D01*
X13548809Y-14603881D01*
X13539286Y-14622928D01*
X13529762Y-14632452D01*
X13510714Y-14641976D01*
X13472619Y-14641976D01*
X13453571Y-14632452D01*
X13663095Y-14641976D02*
X13644048Y-14632452D01*
X13634524Y-14613405D01*
X13634524Y-14441976D01*
X13825000Y-14641976D02*
X13825000Y-14537214D01*
X13815476Y-14518167D01*
X13796428Y-14508643D01*
X13758333Y-14508643D01*
X13739286Y-14518167D01*
X13825000Y-14632452D02*
X13805952Y-14641976D01*
X13758333Y-14641976D01*
X13739286Y-14632452D01*
X13729762Y-14613405D01*
X13729762Y-14594357D01*
X13739286Y-14575309D01*
X13758333Y-14565786D01*
X13805952Y-14565786D01*
X13825000Y-14556262D01*
X13891667Y-14508643D02*
X13967857Y-14508643D01*
X13920238Y-14441976D02*
X13920238Y-14613405D01*
X13929762Y-14632452D01*
X13948809Y-14641976D01*
X13967857Y-14641976D01*
X14110714Y-14632452D02*
X14091667Y-14641976D01*
X14053571Y-14641976D01*
X14034524Y-14632452D01*
X14025000Y-14613405D01*
X14025000Y-14537214D01*
X14034524Y-14518167D01*
X14053571Y-14508643D01*
X14091667Y-14508643D01*
X14110714Y-14518167D01*
X14120238Y-14537214D01*
X14120238Y-14556262D01*
X14025000Y-14575309D01*
X14291667Y-14641976D02*
X14291667Y-14441976D01*
X14291667Y-14632452D02*
X14272619Y-14641976D01*
X14234524Y-14641976D01*
X14215476Y-14632452D01*
X14205952Y-14622928D01*
X14196428Y-14603881D01*
X14196428Y-14546738D01*
X14205952Y-14527690D01*
X14215476Y-14518167D01*
X14234524Y-14508643D01*
X14272619Y-14508643D01*
X14291667Y-14518167D01*
X14367857Y-14718167D02*
X14377381Y-14708643D01*
X14396428Y-14680071D01*
X14405952Y-14661024D01*
X14415476Y-14632452D01*
X14425000Y-14584833D01*
X14425000Y-14546738D01*
X14415476Y-14499119D01*
X14405952Y-14470548D01*
X14396428Y-14451500D01*
X14377381Y-14422928D01*
X14367857Y-14413405D01*
M02*
