G04 #@! TF.GenerationSoftware,KiCad,Pcbnew,6.0.9-8da3e8f707~116~ubuntu20.04.1*
G04 #@! TF.CreationDate,2023-03-15T01:20:07+01:00*
G04 #@! TF.ProjectId,six_to_six_control,7369785f-746f-45f7-9369-785f636f6e74,rev?*
G04 #@! TF.SameCoordinates,Original*
G04 #@! TF.FileFunction,Legend,Top*
G04 #@! TF.FilePolarity,Positive*
%FSLAX46Y46*%
G04 Gerber Fmt 4.6, Leading zero omitted, Abs format (unit mm)*
G04 Created by KiCad (PCBNEW 6.0.9-8da3e8f707~116~ubuntu20.04.1) date 2023-03-15 01:20:07*
%MOMM*%
%LPD*%
G01*
G04 APERTURE LIST*
%ADD10C,0.150000*%
%ADD11C,0.127000*%
%ADD12C,0.200000*%
%ADD13C,0.120000*%
%ADD14C,3.200000*%
%ADD15C,1.358000*%
%ADD16R,1.358000X1.358000*%
%ADD17R,1.530000X1.530000*%
%ADD18C,1.530000*%
%ADD19R,1.700000X1.700000*%
%ADD20O,1.700000X1.700000*%
%ADD21C,5.600000*%
%ADD22R,2.600000X2.600000*%
%ADD23C,2.600000*%
G04 APERTURE END LIST*
D10*
X109371476Y-73985380D02*
X109038142Y-73509190D01*
X108800047Y-73985380D02*
X108800047Y-72985380D01*
X109181000Y-72985380D01*
X109276238Y-73033000D01*
X109323857Y-73080619D01*
X109371476Y-73175857D01*
X109371476Y-73318714D01*
X109323857Y-73413952D01*
X109276238Y-73461571D01*
X109181000Y-73509190D01*
X108800047Y-73509190D01*
X109752428Y-73937761D02*
X109895285Y-73985380D01*
X110133380Y-73985380D01*
X110228619Y-73937761D01*
X110276238Y-73890142D01*
X110323857Y-73794904D01*
X110323857Y-73699666D01*
X110276238Y-73604428D01*
X110228619Y-73556809D01*
X110133380Y-73509190D01*
X109942904Y-73461571D01*
X109847666Y-73413952D01*
X109800047Y-73366333D01*
X109752428Y-73271095D01*
X109752428Y-73175857D01*
X109800047Y-73080619D01*
X109847666Y-73033000D01*
X109942904Y-72985380D01*
X110181000Y-72985380D01*
X110323857Y-73033000D01*
X110752428Y-73604428D02*
X111514333Y-73604428D01*
X112419095Y-73318714D02*
X112419095Y-73985380D01*
X112181000Y-72937761D02*
X111942904Y-73652047D01*
X112561952Y-73652047D01*
X113085761Y-73413952D02*
X112990523Y-73366333D01*
X112942904Y-73318714D01*
X112895285Y-73223476D01*
X112895285Y-73175857D01*
X112942904Y-73080619D01*
X112990523Y-73033000D01*
X113085761Y-72985380D01*
X113276238Y-72985380D01*
X113371476Y-73033000D01*
X113419095Y-73080619D01*
X113466714Y-73175857D01*
X113466714Y-73223476D01*
X113419095Y-73318714D01*
X113371476Y-73366333D01*
X113276238Y-73413952D01*
X113085761Y-73413952D01*
X112990523Y-73461571D01*
X112942904Y-73509190D01*
X112895285Y-73604428D01*
X112895285Y-73794904D01*
X112942904Y-73890142D01*
X112990523Y-73937761D01*
X113085761Y-73985380D01*
X113276238Y-73985380D01*
X113371476Y-73937761D01*
X113419095Y-73890142D01*
X113466714Y-73794904D01*
X113466714Y-73604428D01*
X113419095Y-73509190D01*
X113371476Y-73461571D01*
X113276238Y-73413952D01*
X114371476Y-72985380D02*
X113895285Y-72985380D01*
X113847666Y-73461571D01*
X113895285Y-73413952D01*
X113990523Y-73366333D01*
X114228619Y-73366333D01*
X114323857Y-73413952D01*
X114371476Y-73461571D01*
X114419095Y-73556809D01*
X114419095Y-73794904D01*
X114371476Y-73890142D01*
X114323857Y-73937761D01*
X114228619Y-73985380D01*
X113990523Y-73985380D01*
X113895285Y-73937761D01*
X113847666Y-73890142D01*
X115609571Y-73985380D02*
X115609571Y-73318714D01*
X115609571Y-73413952D02*
X115657190Y-73366333D01*
X115752428Y-73318714D01*
X115895285Y-73318714D01*
X115990523Y-73366333D01*
X116038142Y-73461571D01*
X116038142Y-73985380D01*
X116038142Y-73461571D02*
X116085761Y-73366333D01*
X116181000Y-73318714D01*
X116323857Y-73318714D01*
X116419095Y-73366333D01*
X116466714Y-73461571D01*
X116466714Y-73985380D01*
X117085761Y-73985380D02*
X116990523Y-73937761D01*
X116942904Y-73890142D01*
X116895285Y-73794904D01*
X116895285Y-73509190D01*
X116942904Y-73413952D01*
X116990523Y-73366333D01*
X117085761Y-73318714D01*
X117228619Y-73318714D01*
X117323857Y-73366333D01*
X117371476Y-73413952D01*
X117419095Y-73509190D01*
X117419095Y-73794904D01*
X117371476Y-73890142D01*
X117323857Y-73937761D01*
X117228619Y-73985380D01*
X117085761Y-73985380D01*
X118276238Y-73985380D02*
X118276238Y-72985380D01*
X118276238Y-73937761D02*
X118181000Y-73985380D01*
X117990523Y-73985380D01*
X117895285Y-73937761D01*
X117847666Y-73890142D01*
X117800047Y-73794904D01*
X117800047Y-73509190D01*
X117847666Y-73413952D01*
X117895285Y-73366333D01*
X117990523Y-73318714D01*
X118181000Y-73318714D01*
X118276238Y-73366333D01*
X119181000Y-73318714D02*
X119181000Y-73985380D01*
X118752428Y-73318714D02*
X118752428Y-73842523D01*
X118800047Y-73937761D01*
X118895285Y-73985380D01*
X119038142Y-73985380D01*
X119133380Y-73937761D01*
X119181000Y-73890142D01*
X119800047Y-73985380D02*
X119704809Y-73937761D01*
X119657190Y-73842523D01*
X119657190Y-72985380D01*
X120561952Y-73937761D02*
X120466714Y-73985380D01*
X120276238Y-73985380D01*
X120181000Y-73937761D01*
X120133380Y-73842523D01*
X120133380Y-73461571D01*
X120181000Y-73366333D01*
X120276238Y-73318714D01*
X120466714Y-73318714D01*
X120561952Y-73366333D01*
X120609571Y-73461571D01*
X120609571Y-73556809D01*
X120133380Y-73652047D01*
X72807000Y-118691000D02*
X73378428Y-118691000D01*
X72692714Y-119033857D02*
X73092714Y-117833857D01*
X73492714Y-119033857D01*
X73892714Y-119033857D02*
X73892714Y-118233857D01*
X73892714Y-118462428D02*
X73949857Y-118348142D01*
X74007000Y-118291000D01*
X74121285Y-118233857D01*
X74235571Y-118233857D01*
X75149857Y-119033857D02*
X75149857Y-117833857D01*
X75149857Y-118976714D02*
X75035571Y-119033857D01*
X74807000Y-119033857D01*
X74692714Y-118976714D01*
X74635571Y-118919571D01*
X74578428Y-118805285D01*
X74578428Y-118462428D01*
X74635571Y-118348142D01*
X74692714Y-118291000D01*
X74807000Y-118233857D01*
X75035571Y-118233857D01*
X75149857Y-118291000D01*
X76235571Y-118233857D02*
X76235571Y-119033857D01*
X75721285Y-118233857D02*
X75721285Y-118862428D01*
X75778428Y-118976714D01*
X75892714Y-119033857D01*
X76064142Y-119033857D01*
X76178428Y-118976714D01*
X76235571Y-118919571D01*
X76807000Y-119033857D02*
X76807000Y-118233857D01*
X76807000Y-117833857D02*
X76749857Y-117891000D01*
X76807000Y-117948142D01*
X76864142Y-117891000D01*
X76807000Y-117833857D01*
X76807000Y-117948142D01*
X77378428Y-118233857D02*
X77378428Y-119033857D01*
X77378428Y-118348142D02*
X77435571Y-118291000D01*
X77549857Y-118233857D01*
X77721285Y-118233857D01*
X77835571Y-118291000D01*
X77892714Y-118405285D01*
X77892714Y-119033857D01*
X78635571Y-119033857D02*
X78521285Y-118976714D01*
X78464142Y-118919571D01*
X78407000Y-118805285D01*
X78407000Y-118462428D01*
X78464142Y-118348142D01*
X78521285Y-118291000D01*
X78635571Y-118233857D01*
X78807000Y-118233857D01*
X78921285Y-118291000D01*
X78978428Y-118348142D01*
X79035571Y-118462428D01*
X79035571Y-118805285D01*
X78978428Y-118919571D01*
X78921285Y-118976714D01*
X78807000Y-119033857D01*
X78635571Y-119033857D01*
X80407000Y-117948142D02*
X80464142Y-117891000D01*
X80578428Y-117833857D01*
X80864142Y-117833857D01*
X80978428Y-117891000D01*
X81035571Y-117948142D01*
X81092714Y-118062428D01*
X81092714Y-118176714D01*
X81035571Y-118348142D01*
X80349857Y-119033857D01*
X81092714Y-119033857D01*
X82178428Y-117833857D02*
X81607000Y-117833857D01*
X81549857Y-118405285D01*
X81607000Y-118348142D01*
X81721285Y-118291000D01*
X82007000Y-118291000D01*
X82121285Y-118348142D01*
X82178428Y-118405285D01*
X82235571Y-118519571D01*
X82235571Y-118805285D01*
X82178428Y-118919571D01*
X82121285Y-118976714D01*
X82007000Y-119033857D01*
X81721285Y-119033857D01*
X81607000Y-118976714D01*
X81549857Y-118919571D01*
X83264142Y-117833857D02*
X83035571Y-117833857D01*
X82921285Y-117891000D01*
X82864142Y-117948142D01*
X82749857Y-118119571D01*
X82692714Y-118348142D01*
X82692714Y-118805285D01*
X82749857Y-118919571D01*
X82807000Y-118976714D01*
X82921285Y-119033857D01*
X83149857Y-119033857D01*
X83264142Y-118976714D01*
X83321285Y-118919571D01*
X83378428Y-118805285D01*
X83378428Y-118519571D01*
X83321285Y-118405285D01*
X83264142Y-118348142D01*
X83149857Y-118291000D01*
X82921285Y-118291000D01*
X82807000Y-118348142D01*
X82749857Y-118405285D01*
X82692714Y-118519571D01*
X84121285Y-117833857D02*
X84235571Y-117833857D01*
X84349857Y-117891000D01*
X84407000Y-117948142D01*
X84464142Y-118062428D01*
X84521285Y-118291000D01*
X84521285Y-118576714D01*
X84464142Y-118805285D01*
X84407000Y-118919571D01*
X84349857Y-118976714D01*
X84235571Y-119033857D01*
X84121285Y-119033857D01*
X84007000Y-118976714D01*
X83949857Y-118919571D01*
X83892714Y-118805285D01*
X83835571Y-118576714D01*
X83835571Y-118291000D01*
X83892714Y-118062428D01*
X83949857Y-117948142D01*
X84007000Y-117891000D01*
X84121285Y-117833857D01*
X85949857Y-119033857D02*
X85949857Y-117833857D01*
X86349857Y-118691000D01*
X86749857Y-117833857D01*
X86749857Y-119033857D01*
X87778428Y-118976714D02*
X87664142Y-119033857D01*
X87435571Y-119033857D01*
X87321285Y-118976714D01*
X87264142Y-118862428D01*
X87264142Y-118405285D01*
X87321285Y-118291000D01*
X87435571Y-118233857D01*
X87664142Y-118233857D01*
X87778428Y-118291000D01*
X87835571Y-118405285D01*
X87835571Y-118519571D01*
X87264142Y-118633857D01*
X88864142Y-118233857D02*
X88864142Y-119205285D01*
X88807000Y-119319571D01*
X88749857Y-119376714D01*
X88635571Y-119433857D01*
X88464142Y-119433857D01*
X88349857Y-119376714D01*
X88864142Y-118976714D02*
X88749857Y-119033857D01*
X88521285Y-119033857D01*
X88407000Y-118976714D01*
X88349857Y-118919571D01*
X88292714Y-118805285D01*
X88292714Y-118462428D01*
X88349857Y-118348142D01*
X88407000Y-118291000D01*
X88521285Y-118233857D01*
X88749857Y-118233857D01*
X88864142Y-118291000D01*
X89949857Y-119033857D02*
X89949857Y-118405285D01*
X89892714Y-118291000D01*
X89778428Y-118233857D01*
X89549857Y-118233857D01*
X89435571Y-118291000D01*
X89949857Y-118976714D02*
X89835571Y-119033857D01*
X89549857Y-119033857D01*
X89435571Y-118976714D01*
X89378428Y-118862428D01*
X89378428Y-118748142D01*
X89435571Y-118633857D01*
X89549857Y-118576714D01*
X89835571Y-118576714D01*
X89949857Y-118519571D01*
X58674000Y-120650000D02*
G75*
G03*
X58674000Y-120650000I-635000J0D01*
G01*
X58674000Y-106680000D02*
G75*
G03*
X58674000Y-106680000I-635000J0D01*
G01*
X58674000Y-92710000D02*
G75*
G03*
X58674000Y-92710000I-635000J0D01*
G01*
X58674000Y-78740000D02*
G75*
G03*
X58674000Y-78740000I-635000J0D01*
G01*
X69977000Y-71120000D02*
G75*
G03*
X69977000Y-71120000I-635000J0D01*
G01*
X81153000Y-71120000D02*
G75*
G03*
X81153000Y-71120000I-635000J0D01*
G01*
X109760714Y-99822714D02*
X109875000Y-99879857D01*
X110103571Y-99879857D01*
X110217857Y-99822714D01*
X110275000Y-99708428D01*
X110275000Y-99651285D01*
X110217857Y-99537000D01*
X110103571Y-99479857D01*
X109932142Y-99479857D01*
X109817857Y-99422714D01*
X109760714Y-99308428D01*
X109760714Y-99251285D01*
X109817857Y-99137000D01*
X109932142Y-99079857D01*
X110103571Y-99079857D01*
X110217857Y-99137000D01*
X110789285Y-99879857D02*
X110789285Y-99079857D01*
X110789285Y-98679857D02*
X110732142Y-98737000D01*
X110789285Y-98794142D01*
X110846428Y-98737000D01*
X110789285Y-98679857D01*
X110789285Y-98794142D01*
X111246428Y-99879857D02*
X111875000Y-99079857D01*
X111246428Y-99079857D02*
X111875000Y-99879857D01*
X113075000Y-99079857D02*
X113532142Y-99079857D01*
X113246428Y-98679857D02*
X113246428Y-99708428D01*
X113303571Y-99822714D01*
X113417857Y-99879857D01*
X113532142Y-99879857D01*
X114103571Y-99879857D02*
X113989285Y-99822714D01*
X113932142Y-99765571D01*
X113875000Y-99651285D01*
X113875000Y-99308428D01*
X113932142Y-99194142D01*
X113989285Y-99137000D01*
X114103571Y-99079857D01*
X114275000Y-99079857D01*
X114389285Y-99137000D01*
X114446428Y-99194142D01*
X114503571Y-99308428D01*
X114503571Y-99651285D01*
X114446428Y-99765571D01*
X114389285Y-99822714D01*
X114275000Y-99879857D01*
X114103571Y-99879857D01*
X115875000Y-99822714D02*
X115989285Y-99879857D01*
X116217857Y-99879857D01*
X116332142Y-99822714D01*
X116389285Y-99708428D01*
X116389285Y-99651285D01*
X116332142Y-99537000D01*
X116217857Y-99479857D01*
X116046428Y-99479857D01*
X115932142Y-99422714D01*
X115875000Y-99308428D01*
X115875000Y-99251285D01*
X115932142Y-99137000D01*
X116046428Y-99079857D01*
X116217857Y-99079857D01*
X116332142Y-99137000D01*
X116903571Y-99879857D02*
X116903571Y-99079857D01*
X116903571Y-98679857D02*
X116846428Y-98737000D01*
X116903571Y-98794142D01*
X116960714Y-98737000D01*
X116903571Y-98679857D01*
X116903571Y-98794142D01*
X117360714Y-99879857D02*
X117989285Y-99079857D01*
X117360714Y-99079857D02*
X117989285Y-99879857D01*
X119875000Y-99822714D02*
X119760714Y-99879857D01*
X119532142Y-99879857D01*
X119417857Y-99822714D01*
X119360714Y-99765571D01*
X119303571Y-99651285D01*
X119303571Y-99308428D01*
X119360714Y-99194142D01*
X119417857Y-99137000D01*
X119532142Y-99079857D01*
X119760714Y-99079857D01*
X119875000Y-99137000D01*
X120560714Y-99879857D02*
X120446428Y-99822714D01*
X120389285Y-99765571D01*
X120332142Y-99651285D01*
X120332142Y-99308428D01*
X120389285Y-99194142D01*
X120446428Y-99137000D01*
X120560714Y-99079857D01*
X120732142Y-99079857D01*
X120846428Y-99137000D01*
X120903571Y-99194142D01*
X120960714Y-99308428D01*
X120960714Y-99651285D01*
X120903571Y-99765571D01*
X120846428Y-99822714D01*
X120732142Y-99879857D01*
X120560714Y-99879857D01*
X121475000Y-99079857D02*
X121475000Y-99879857D01*
X121475000Y-99194142D02*
X121532142Y-99137000D01*
X121646428Y-99079857D01*
X121817857Y-99079857D01*
X121932142Y-99137000D01*
X121989285Y-99251285D01*
X121989285Y-99879857D01*
X122389285Y-99079857D02*
X122846428Y-99079857D01*
X122560714Y-98679857D02*
X122560714Y-99708428D01*
X122617857Y-99822714D01*
X122732142Y-99879857D01*
X122846428Y-99879857D01*
X123246428Y-99879857D02*
X123246428Y-99079857D01*
X123246428Y-99308428D02*
X123303571Y-99194142D01*
X123360714Y-99137000D01*
X123475000Y-99079857D01*
X123589285Y-99079857D01*
X124160714Y-99879857D02*
X124046428Y-99822714D01*
X123989285Y-99765571D01*
X123932142Y-99651285D01*
X123932142Y-99308428D01*
X123989285Y-99194142D01*
X124046428Y-99137000D01*
X124160714Y-99079857D01*
X124332142Y-99079857D01*
X124446428Y-99137000D01*
X124503571Y-99194142D01*
X124560714Y-99308428D01*
X124560714Y-99651285D01*
X124503571Y-99765571D01*
X124446428Y-99822714D01*
X124332142Y-99879857D01*
X124160714Y-99879857D01*
X125246428Y-99879857D02*
X125132142Y-99822714D01*
X125075000Y-99708428D01*
X125075000Y-98679857D01*
X114246428Y-101811857D02*
X114246428Y-101011857D01*
X114246428Y-101240428D02*
X114303571Y-101126142D01*
X114360714Y-101069000D01*
X114475000Y-101011857D01*
X114589285Y-101011857D01*
X115446428Y-101754714D02*
X115332142Y-101811857D01*
X115103571Y-101811857D01*
X114989285Y-101754714D01*
X114932142Y-101640428D01*
X114932142Y-101183285D01*
X114989285Y-101069000D01*
X115103571Y-101011857D01*
X115332142Y-101011857D01*
X115446428Y-101069000D01*
X115503571Y-101183285D01*
X115503571Y-101297571D01*
X114932142Y-101411857D01*
X115903571Y-101011857D02*
X116189285Y-101811857D01*
X116475000Y-101011857D01*
X116932142Y-101697571D02*
X116989285Y-101754714D01*
X116932142Y-101811857D01*
X116875000Y-101754714D01*
X116932142Y-101697571D01*
X116932142Y-101811857D01*
X116932142Y-101069000D02*
X116989285Y-101126142D01*
X116932142Y-101183285D01*
X116875000Y-101126142D01*
X116932142Y-101069000D01*
X116932142Y-101183285D01*
X119046428Y-101811857D02*
X118360714Y-101811857D01*
X118703571Y-101811857D02*
X118703571Y-100611857D01*
X118589285Y-100783285D01*
X118475000Y-100897571D01*
X118360714Y-100954714D01*
X119560714Y-101697571D02*
X119617857Y-101754714D01*
X119560714Y-101811857D01*
X119503571Y-101754714D01*
X119560714Y-101697571D01*
X119560714Y-101811857D01*
X120360714Y-100611857D02*
X120475000Y-100611857D01*
X120589285Y-100669000D01*
X120646428Y-100726142D01*
X120703571Y-100840428D01*
X120760714Y-101069000D01*
X120760714Y-101354714D01*
X120703571Y-101583285D01*
X120646428Y-101697571D01*
X120589285Y-101754714D01*
X120475000Y-101811857D01*
X120360714Y-101811857D01*
X120246428Y-101754714D01*
X120189285Y-101697571D01*
X120132142Y-101583285D01*
X120075000Y-101354714D01*
X120075000Y-101069000D01*
X120132142Y-100840428D01*
X120189285Y-100726142D01*
X120246428Y-100669000D01*
X120360714Y-100611857D01*
X113246428Y-103743857D02*
X112560714Y-103743857D01*
X112903571Y-103743857D02*
X112903571Y-102543857D01*
X112789285Y-102715285D01*
X112675000Y-102829571D01*
X112560714Y-102886714D01*
X114275000Y-102943857D02*
X114275000Y-103743857D01*
X113989285Y-102486714D02*
X113703571Y-103343857D01*
X114446428Y-103343857D01*
X114903571Y-103629571D02*
X114960714Y-103686714D01*
X114903571Y-103743857D01*
X114846428Y-103686714D01*
X114903571Y-103629571D01*
X114903571Y-103743857D01*
X115703571Y-102543857D02*
X115817857Y-102543857D01*
X115932142Y-102601000D01*
X115989285Y-102658142D01*
X116046428Y-102772428D01*
X116103571Y-103001000D01*
X116103571Y-103286714D01*
X116046428Y-103515285D01*
X115989285Y-103629571D01*
X115932142Y-103686714D01*
X115817857Y-103743857D01*
X115703571Y-103743857D01*
X115589285Y-103686714D01*
X115532142Y-103629571D01*
X115475000Y-103515285D01*
X115417857Y-103286714D01*
X115417857Y-103001000D01*
X115475000Y-102772428D01*
X115532142Y-102658142D01*
X115589285Y-102601000D01*
X115703571Y-102543857D01*
X116503571Y-102543857D02*
X117246428Y-102543857D01*
X116846428Y-103001000D01*
X117017857Y-103001000D01*
X117132142Y-103058142D01*
X117189285Y-103115285D01*
X117246428Y-103229571D01*
X117246428Y-103515285D01*
X117189285Y-103629571D01*
X117132142Y-103686714D01*
X117017857Y-103743857D01*
X116675000Y-103743857D01*
X116560714Y-103686714D01*
X116503571Y-103629571D01*
X117760714Y-103629571D02*
X117817857Y-103686714D01*
X117760714Y-103743857D01*
X117703571Y-103686714D01*
X117760714Y-103629571D01*
X117760714Y-103743857D01*
X118274999Y-102658142D02*
X118332142Y-102601000D01*
X118446428Y-102543857D01*
X118732142Y-102543857D01*
X118846428Y-102601000D01*
X118903571Y-102658142D01*
X118960714Y-102772428D01*
X118960714Y-102886714D01*
X118903571Y-103058142D01*
X118217857Y-103743857D01*
X118960714Y-103743857D01*
X119703571Y-102543857D02*
X119817857Y-102543857D01*
X119932142Y-102601000D01*
X119989285Y-102658142D01*
X120046428Y-102772428D01*
X120103571Y-103001000D01*
X120103571Y-103286714D01*
X120046428Y-103515285D01*
X119989285Y-103629571D01*
X119932142Y-103686714D01*
X119817857Y-103743857D01*
X119703571Y-103743857D01*
X119589285Y-103686714D01*
X119532142Y-103629571D01*
X119474999Y-103515285D01*
X119417857Y-103286714D01*
X119417857Y-103001000D01*
X119474999Y-102772428D01*
X119532142Y-102658142D01*
X119589285Y-102601000D01*
X119703571Y-102543857D01*
X120560714Y-102658142D02*
X120617857Y-102601000D01*
X120732142Y-102543857D01*
X121017857Y-102543857D01*
X121132142Y-102601000D01*
X121189285Y-102658142D01*
X121246428Y-102772428D01*
X121246428Y-102886714D01*
X121189285Y-103058142D01*
X120503571Y-103743857D01*
X121246428Y-103743857D01*
X121646428Y-102543857D02*
X122389285Y-102543857D01*
X121989285Y-103001000D01*
X122160714Y-103001000D01*
X122275000Y-103058142D01*
X122332142Y-103115285D01*
X122389285Y-103229571D01*
X122389285Y-103515285D01*
X122332142Y-103629571D01*
X122275000Y-103686714D01*
X122160714Y-103743857D01*
X121817857Y-103743857D01*
X121703571Y-103686714D01*
X121646428Y-103629571D01*
X109132142Y-105675857D02*
X109132142Y-104475857D01*
X109132142Y-105618714D02*
X109017857Y-105675857D01*
X108789285Y-105675857D01*
X108675000Y-105618714D01*
X108617857Y-105561571D01*
X108560714Y-105447285D01*
X108560714Y-105104428D01*
X108617857Y-104990142D01*
X108675000Y-104933000D01*
X108789285Y-104875857D01*
X109017857Y-104875857D01*
X109132142Y-104933000D01*
X110160714Y-105618714D02*
X110046428Y-105675857D01*
X109817857Y-105675857D01*
X109703571Y-105618714D01*
X109646428Y-105504428D01*
X109646428Y-105047285D01*
X109703571Y-104933000D01*
X109817857Y-104875857D01*
X110046428Y-104875857D01*
X110160714Y-104933000D01*
X110217857Y-105047285D01*
X110217857Y-105161571D01*
X109646428Y-105275857D01*
X110675000Y-105618714D02*
X110789285Y-105675857D01*
X111017857Y-105675857D01*
X111132142Y-105618714D01*
X111189285Y-105504428D01*
X111189285Y-105447285D01*
X111132142Y-105333000D01*
X111017857Y-105275857D01*
X110846428Y-105275857D01*
X110732142Y-105218714D01*
X110675000Y-105104428D01*
X110675000Y-105047285D01*
X110732142Y-104933000D01*
X110846428Y-104875857D01*
X111017857Y-104875857D01*
X111132142Y-104933000D01*
X111703571Y-105675857D02*
X111703571Y-104875857D01*
X111703571Y-104475857D02*
X111646428Y-104533000D01*
X111703571Y-104590142D01*
X111760714Y-104533000D01*
X111703571Y-104475857D01*
X111703571Y-104590142D01*
X112789285Y-104875857D02*
X112789285Y-105847285D01*
X112732142Y-105961571D01*
X112675000Y-106018714D01*
X112560714Y-106075857D01*
X112389285Y-106075857D01*
X112275000Y-106018714D01*
X112789285Y-105618714D02*
X112675000Y-105675857D01*
X112446428Y-105675857D01*
X112332142Y-105618714D01*
X112275000Y-105561571D01*
X112217857Y-105447285D01*
X112217857Y-105104428D01*
X112275000Y-104990142D01*
X112332142Y-104933000D01*
X112446428Y-104875857D01*
X112675000Y-104875857D01*
X112789285Y-104933000D01*
X113360714Y-104875857D02*
X113360714Y-105675857D01*
X113360714Y-104990142D02*
X113417857Y-104933000D01*
X113532142Y-104875857D01*
X113703571Y-104875857D01*
X113817857Y-104933000D01*
X113875000Y-105047285D01*
X113875000Y-105675857D01*
X114903571Y-105618714D02*
X114789285Y-105675857D01*
X114560714Y-105675857D01*
X114446428Y-105618714D01*
X114389285Y-105504428D01*
X114389285Y-105047285D01*
X114446428Y-104933000D01*
X114560714Y-104875857D01*
X114789285Y-104875857D01*
X114903571Y-104933000D01*
X114960714Y-105047285D01*
X114960714Y-105161571D01*
X114389285Y-105275857D01*
X115989285Y-105675857D02*
X115989285Y-104475857D01*
X115989285Y-105618714D02*
X115875000Y-105675857D01*
X115646428Y-105675857D01*
X115532142Y-105618714D01*
X115475000Y-105561571D01*
X115417857Y-105447285D01*
X115417857Y-105104428D01*
X115475000Y-104990142D01*
X115532142Y-104933000D01*
X115646428Y-104875857D01*
X115875000Y-104875857D01*
X115989285Y-104933000D01*
X117475000Y-105675857D02*
X117475000Y-104475857D01*
X117475000Y-104933000D02*
X117589285Y-104875857D01*
X117817857Y-104875857D01*
X117932142Y-104933000D01*
X117989285Y-104990142D01*
X118046428Y-105104428D01*
X118046428Y-105447285D01*
X117989285Y-105561571D01*
X117932142Y-105618714D01*
X117817857Y-105675857D01*
X117589285Y-105675857D01*
X117475000Y-105618714D01*
X118446428Y-104875857D02*
X118732142Y-105675857D01*
X119017857Y-104875857D02*
X118732142Y-105675857D01*
X118617857Y-105961571D01*
X118560714Y-106018714D01*
X118446428Y-106075857D01*
X119475000Y-105561571D02*
X119532142Y-105618714D01*
X119475000Y-105675857D01*
X119417857Y-105618714D01*
X119475000Y-105561571D01*
X119475000Y-105675857D01*
X119475000Y-104933000D02*
X119532142Y-104990142D01*
X119475000Y-105047285D01*
X119417857Y-104990142D01*
X119475000Y-104933000D01*
X119475000Y-105047285D01*
X120903571Y-105618714D02*
X121075000Y-105675857D01*
X121360714Y-105675857D01*
X121475000Y-105618714D01*
X121532142Y-105561571D01*
X121589285Y-105447285D01*
X121589285Y-105333000D01*
X121532142Y-105218714D01*
X121475000Y-105161571D01*
X121360714Y-105104428D01*
X121132142Y-105047285D01*
X121017857Y-104990142D01*
X120960714Y-104933000D01*
X120903571Y-104818714D01*
X120903571Y-104704428D01*
X120960714Y-104590142D01*
X121017857Y-104533000D01*
X121132142Y-104475857D01*
X121417857Y-104475857D01*
X121589285Y-104533000D01*
X122675000Y-104475857D02*
X122103571Y-104475857D01*
X122046428Y-105047285D01*
X122103571Y-104990142D01*
X122217857Y-104933000D01*
X122503571Y-104933000D01*
X122617857Y-104990142D01*
X122675000Y-105047285D01*
X122732142Y-105161571D01*
X122732142Y-105447285D01*
X122675000Y-105561571D01*
X122617857Y-105618714D01*
X122503571Y-105675857D01*
X122217857Y-105675857D01*
X122103571Y-105618714D01*
X122046428Y-105561571D01*
X123303571Y-105675857D02*
X123532142Y-105675857D01*
X123646428Y-105618714D01*
X123703571Y-105561571D01*
X123817857Y-105390142D01*
X123875000Y-105161571D01*
X123875000Y-104704428D01*
X123817857Y-104590142D01*
X123760714Y-104533000D01*
X123646428Y-104475857D01*
X123417857Y-104475857D01*
X123303571Y-104533000D01*
X123246428Y-104590142D01*
X123189285Y-104704428D01*
X123189285Y-104990142D01*
X123246428Y-105104428D01*
X123303571Y-105161571D01*
X123417857Y-105218714D01*
X123646428Y-105218714D01*
X123760714Y-105161571D01*
X123817857Y-105104428D01*
X123875000Y-104990142D01*
X124389285Y-105675857D02*
X124389285Y-104475857D01*
X124789285Y-105333000D01*
X125189285Y-104475857D01*
X125189285Y-105675857D01*
X125646428Y-104475857D02*
X126446428Y-104475857D01*
X125646428Y-105675857D01*
X126446428Y-105675857D01*
X124714595Y-76167380D02*
X124714595Y-76976904D01*
X124762214Y-77072142D01*
X124809833Y-77119761D01*
X124905071Y-77167380D01*
X125095547Y-77167380D01*
X125190785Y-77119761D01*
X125238404Y-77072142D01*
X125286023Y-76976904D01*
X125286023Y-76167380D01*
X126286023Y-77167380D02*
X125714595Y-77167380D01*
X126000309Y-77167380D02*
X126000309Y-76167380D01*
X125905071Y-76310238D01*
X125809833Y-76405476D01*
X125714595Y-76453095D01*
X58086666Y-88352380D02*
X58086666Y-89066666D01*
X58039047Y-89209523D01*
X57943809Y-89304761D01*
X57800952Y-89352380D01*
X57705714Y-89352380D01*
X59039047Y-88352380D02*
X58562857Y-88352380D01*
X58515238Y-88828571D01*
X58562857Y-88780952D01*
X58658095Y-88733333D01*
X58896190Y-88733333D01*
X58991428Y-88780952D01*
X59039047Y-88828571D01*
X59086666Y-88923809D01*
X59086666Y-89161904D01*
X59039047Y-89257142D01*
X58991428Y-89304761D01*
X58896190Y-89352380D01*
X58658095Y-89352380D01*
X58562857Y-89304761D01*
X58515238Y-89257142D01*
X58086666Y-116292380D02*
X58086666Y-117006666D01*
X58039047Y-117149523D01*
X57943809Y-117244761D01*
X57800952Y-117292380D01*
X57705714Y-117292380D01*
X59086666Y-117292380D02*
X58515238Y-117292380D01*
X58800952Y-117292380D02*
X58800952Y-116292380D01*
X58705714Y-116435238D01*
X58610476Y-116530476D01*
X58515238Y-116578095D01*
X68881666Y-66762380D02*
X68881666Y-67476666D01*
X68834047Y-67619523D01*
X68738809Y-67714761D01*
X68595952Y-67762380D01*
X68500714Y-67762380D01*
X69786428Y-67095714D02*
X69786428Y-67762380D01*
X69548333Y-66714761D02*
X69310238Y-67429047D01*
X69929285Y-67429047D01*
X80311666Y-66762380D02*
X80311666Y-67476666D01*
X80264047Y-67619523D01*
X80168809Y-67714761D01*
X80025952Y-67762380D01*
X79930714Y-67762380D01*
X80740238Y-66857619D02*
X80787857Y-66810000D01*
X80883095Y-66762380D01*
X81121190Y-66762380D01*
X81216428Y-66810000D01*
X81264047Y-66857619D01*
X81311666Y-66952857D01*
X81311666Y-67048095D01*
X81264047Y-67190952D01*
X80692619Y-67762380D01*
X81311666Y-67762380D01*
X136191666Y-75017380D02*
X136191666Y-75731666D01*
X136144047Y-75874523D01*
X136048809Y-75969761D01*
X135905952Y-76017380D01*
X135810714Y-76017380D01*
X136572619Y-75017380D02*
X137239285Y-75017380D01*
X136810714Y-76017380D01*
X58086666Y-102322380D02*
X58086666Y-103036666D01*
X58039047Y-103179523D01*
X57943809Y-103274761D01*
X57800952Y-103322380D01*
X57705714Y-103322380D01*
X58467619Y-102322380D02*
X59086666Y-102322380D01*
X58753333Y-102703333D01*
X58896190Y-102703333D01*
X58991428Y-102750952D01*
X59039047Y-102798571D01*
X59086666Y-102893809D01*
X59086666Y-103131904D01*
X59039047Y-103227142D01*
X58991428Y-103274761D01*
X58896190Y-103322380D01*
X58610476Y-103322380D01*
X58515238Y-103274761D01*
X58467619Y-103227142D01*
X58086666Y-74382380D02*
X58086666Y-75096666D01*
X58039047Y-75239523D01*
X57943809Y-75334761D01*
X57800952Y-75382380D01*
X57705714Y-75382380D01*
X58991428Y-74382380D02*
X58800952Y-74382380D01*
X58705714Y-74430000D01*
X58658095Y-74477619D01*
X58562857Y-74620476D01*
X58515238Y-74810952D01*
X58515238Y-75191904D01*
X58562857Y-75287142D01*
X58610476Y-75334761D01*
X58705714Y-75382380D01*
X58896190Y-75382380D01*
X58991428Y-75334761D01*
X59039047Y-75287142D01*
X59086666Y-75191904D01*
X59086666Y-74953809D01*
X59039047Y-74858571D01*
X58991428Y-74810952D01*
X58896190Y-74763333D01*
X58705714Y-74763333D01*
X58610476Y-74810952D01*
X58562857Y-74858571D01*
X58515238Y-74953809D01*
D11*
X128401500Y-75580000D02*
X84401500Y-75580000D01*
X84401500Y-61580000D02*
X128401500Y-61580000D01*
X84401500Y-75580000D02*
X84401500Y-61580000D01*
X128401500Y-61580000D02*
X128401500Y-75580000D01*
D12*
X129133500Y-72520000D02*
G75*
G03*
X129133500Y-72520000I-100000J0D01*
G01*
D13*
X56575000Y-83760000D02*
X51375000Y-83760000D01*
X53975000Y-91440000D02*
X53975000Y-94040000D01*
X53975000Y-94040000D02*
X51375000Y-94040000D01*
X51375000Y-94040000D02*
X51375000Y-83760000D01*
X56575000Y-94040000D02*
X55245000Y-94040000D01*
X56575000Y-91440000D02*
X53975000Y-91440000D01*
X56575000Y-91440000D02*
X56575000Y-83760000D01*
X56575000Y-92710000D02*
X56575000Y-94040000D01*
X53975000Y-119380000D02*
X53975000Y-121980000D01*
X53975000Y-121980000D02*
X51375000Y-121980000D01*
X56575000Y-119380000D02*
X56575000Y-111700000D01*
X56575000Y-111700000D02*
X51375000Y-111700000D01*
X56575000Y-120650000D02*
X56575000Y-121980000D01*
X56575000Y-121980000D02*
X55245000Y-121980000D01*
X56575000Y-119380000D02*
X53975000Y-119380000D01*
X51375000Y-121980000D02*
X51375000Y-111700000D01*
X67370000Y-69850000D02*
X64770000Y-69850000D01*
X64770000Y-69850000D02*
X64770000Y-72450000D01*
X62170000Y-72450000D02*
X62170000Y-62170000D01*
X67370000Y-69850000D02*
X67370000Y-62170000D01*
X64770000Y-72450000D02*
X62170000Y-72450000D01*
X67370000Y-62170000D02*
X62170000Y-62170000D01*
X67370000Y-72450000D02*
X66040000Y-72450000D01*
X67370000Y-71120000D02*
X67370000Y-72450000D01*
X78805000Y-72440000D02*
X77475000Y-72440000D01*
X76205000Y-72440000D02*
X73605000Y-72440000D01*
X76205000Y-69840000D02*
X76205000Y-72440000D01*
X78805000Y-69840000D02*
X78805000Y-62160000D01*
X78805000Y-69840000D02*
X76205000Y-69840000D01*
X78805000Y-71110000D02*
X78805000Y-72440000D01*
X73605000Y-72440000D02*
X73605000Y-62160000D01*
X78805000Y-62160000D02*
X73605000Y-62160000D01*
X140990000Y-73965000D02*
X141730000Y-73965000D01*
X139430000Y-73725000D02*
X139430000Y-63445000D01*
X138069000Y-67079000D02*
X138104000Y-67114000D01*
X131569000Y-73725000D02*
X131569000Y-63445000D01*
X140930000Y-73725000D02*
X140930000Y-63445000D01*
X131569000Y-73725000D02*
X141490000Y-73725000D01*
X137853000Y-67272000D02*
X137899000Y-67319000D01*
X141490000Y-73725000D02*
X141490000Y-63445000D01*
X131569000Y-63445000D02*
X141490000Y-63445000D01*
X135555000Y-64975000D02*
X135591000Y-65010000D01*
X135761000Y-64770000D02*
X135807000Y-64817000D01*
X134529000Y-73725000D02*
X134529000Y-63445000D01*
X141730000Y-73965000D02*
X141730000Y-73465000D01*
X138365000Y-71809000D02*
G75*
G03*
X138510253Y-71096195I-1535001J683999D01*
G01*
X136146000Y-72660000D02*
G75*
G03*
X137513042Y-72660427I684001J1534993D01*
G01*
X138510000Y-71125000D02*
G75*
G03*
X138364756Y-70441682I-1680000J0D01*
G01*
X137514000Y-69589999D02*
G75*
G03*
X136146958Y-69589573I-684000J-1535001D01*
G01*
X135295000Y-70441000D02*
G75*
G03*
X135294573Y-71808042I1534993J-684001D01*
G01*
X138510000Y-66045000D02*
G75*
G03*
X138510000Y-66045000I-1680000J0D01*
G01*
X56575000Y-106680000D02*
X56575000Y-108010000D01*
X56575000Y-105410000D02*
X56575000Y-97730000D01*
X53975000Y-108010000D02*
X51375000Y-108010000D01*
X56575000Y-105410000D02*
X53975000Y-105410000D01*
X53975000Y-105410000D02*
X53975000Y-108010000D01*
X56575000Y-97730000D02*
X51375000Y-97730000D01*
X51375000Y-108010000D02*
X51375000Y-97730000D01*
X56575000Y-108010000D02*
X55245000Y-108010000D01*
X56575000Y-77470000D02*
X56575000Y-69790000D01*
X51375000Y-80070000D02*
X51375000Y-69790000D01*
X56575000Y-77470000D02*
X53975000Y-77470000D01*
X56575000Y-80070000D02*
X55245000Y-80070000D01*
X56575000Y-78740000D02*
X56575000Y-80070000D01*
X56575000Y-69790000D02*
X51375000Y-69790000D01*
X53975000Y-80070000D02*
X51375000Y-80070000D01*
X53975000Y-77470000D02*
X53975000Y-80070000D01*
%LPC*%
D14*
X146050000Y-81280000D03*
X147320000Y-129540000D03*
X95250000Y-96520000D03*
X64770000Y-129540000D03*
X71120000Y-81280000D03*
X95250000Y-124460000D03*
D15*
X97790000Y-81280000D03*
X100330000Y-81280000D03*
X102870000Y-81280000D03*
X105410000Y-81280000D03*
X125730000Y-129540000D03*
X107950000Y-81280000D03*
X110490000Y-81280000D03*
X123190000Y-129540000D03*
X67310000Y-81280000D03*
X64770000Y-81280000D03*
X113030000Y-81280000D03*
X115570000Y-81280000D03*
X119634000Y-81280000D03*
X122174000Y-81280000D03*
X124714000Y-81280000D03*
X127254000Y-81280000D03*
X129794000Y-81280000D03*
X132334000Y-81280000D03*
X92710000Y-81280000D03*
X90170000Y-81280000D03*
X87630000Y-81280000D03*
X85090000Y-81280000D03*
X82550000Y-81280000D03*
X80010000Y-81280000D03*
X77470000Y-81280000D03*
X74930000Y-81280000D03*
X67310000Y-83820000D03*
X64770000Y-83820000D03*
X67310000Y-86360000D03*
X64770000Y-86360000D03*
X67310000Y-88900000D03*
X64770000Y-88900000D03*
X67310000Y-91440000D03*
X64770000Y-91440000D03*
X67310000Y-93980000D03*
X64770000Y-93980000D03*
X67310000Y-96520000D03*
X64770000Y-96520000D03*
X67310000Y-99060000D03*
X64770000Y-99060000D03*
X67310000Y-101600000D03*
X64770000Y-101600000D03*
X67310000Y-104140000D03*
X64770000Y-104140000D03*
X67310000Y-106680000D03*
X64770000Y-106680000D03*
X67310000Y-109220000D03*
X64770000Y-109220000D03*
X67310000Y-111760000D03*
X64770000Y-111760000D03*
X67310000Y-114300000D03*
X64770000Y-114300000D03*
X67310000Y-116840000D03*
X64770000Y-116840000D03*
X67310000Y-119380000D03*
X64770000Y-119380000D03*
X67310000Y-121920000D03*
X64770000Y-121920000D03*
X110490000Y-129540000D03*
X107950000Y-129540000D03*
X105410000Y-129540000D03*
X102870000Y-129540000D03*
X100330000Y-129540000D03*
X97790000Y-129540000D03*
X95250000Y-129540000D03*
X92710000Y-129540000D03*
X87630000Y-129540000D03*
X85090000Y-129540000D03*
X82550000Y-129540000D03*
X80010000Y-129540000D03*
X77470000Y-129540000D03*
X74930000Y-129540000D03*
X72644000Y-129540000D03*
X70104000Y-129540000D03*
X137414000Y-81280000D03*
X120650000Y-129540000D03*
X118110000Y-129540000D03*
X134874000Y-81280000D03*
X67310000Y-124460000D03*
X64770000Y-124460000D03*
X130810000Y-129540000D03*
D16*
X133350000Y-129540000D03*
D15*
X128270000Y-129540000D03*
X142494000Y-81280000D03*
X139954000Y-81280000D03*
X115570000Y-129540000D03*
D17*
X127001500Y-72390000D03*
D18*
X127001500Y-69850000D03*
X127001500Y-67310000D03*
X127001500Y-64770000D03*
X85781500Y-64770000D03*
X85781500Y-67310000D03*
X85781500Y-69850000D03*
X85781500Y-72390000D03*
D19*
X55245000Y-92710000D03*
D20*
X52705000Y-92710000D03*
X55245000Y-90170000D03*
X52705000Y-90170000D03*
X55245000Y-87630000D03*
X52705000Y-87630000D03*
X55245000Y-85090000D03*
X52705000Y-85090000D03*
D19*
X55245000Y-120650000D03*
D20*
X52705000Y-120650000D03*
X55245000Y-118110000D03*
X52705000Y-118110000D03*
X55245000Y-115570000D03*
X52705000Y-115570000D03*
X55245000Y-113030000D03*
X52705000Y-113030000D03*
D19*
X66040000Y-71120000D03*
D20*
X63500000Y-71120000D03*
X66040000Y-68580000D03*
X63500000Y-68580000D03*
X66040000Y-66040000D03*
X63500000Y-66040000D03*
X66040000Y-63500000D03*
X63500000Y-63500000D03*
D21*
X140970000Y-129540000D03*
X54610000Y-129540000D03*
X146050000Y-63500000D03*
D20*
X74935000Y-63490000D03*
X77475000Y-63490000D03*
X74935000Y-66030000D03*
X77475000Y-66030000D03*
X74935000Y-68570000D03*
X77475000Y-68570000D03*
X74935000Y-71110000D03*
D19*
X77475000Y-71110000D03*
D22*
X136830000Y-71125000D03*
D23*
X136830000Y-66045000D03*
D21*
X54610000Y-62230000D03*
D19*
X55245000Y-106680000D03*
D20*
X52705000Y-106680000D03*
X55245000Y-104140000D03*
X52705000Y-104140000D03*
X55245000Y-101600000D03*
X52705000Y-101600000D03*
X55245000Y-99060000D03*
X52705000Y-99060000D03*
D19*
X55245000Y-78740000D03*
D20*
X52705000Y-78740000D03*
X55245000Y-76200000D03*
X52705000Y-76200000D03*
X55245000Y-73660000D03*
X52705000Y-73660000D03*
X55245000Y-71120000D03*
X52705000Y-71120000D03*
M02*
